<?xml version="1.0" encoding="UTF-8" standalone="no"?>
<!DOCTYPE svg PUBLIC "-//W3C//DTD SVG 1.1//EN" "http://www.w3.org/Graphics/SVG/1.1/DTD/svg11.dtd">
<!-- Created with Vectornator (http://vectornator.io/) -->
<svg height="100%" stroke-miterlimit="10" style="fill-rule:nonzero;clip-rule:evenodd;stroke-linecap:round;stroke-linejoin:round;" version="1.1" viewBox="0 0 800 800" width="100%" xml:space="preserve" xmlns="http://www.w3.org/2000/svg" xmlns:vectornator="http://vectornator.io" xmlns:xlink="http://www.w3.org/1999/xlink">
<defs>
<linearGradient gradientTransform="matrix(6.12323e-17 1 -1 6.12323e-17 677.5 -122.5)" gradientUnits="userSpaceOnUse" id="LinearGradient" x1="175" x2="625" y1="277.5" y2="277.5">
<stop offset="0" stop-color="#0f7900"/>
<stop offset="0.57407" stop-color="#fb6500"/>
</linearGradient>
</defs>
<g opacity="1">
<path d="M184.125 37.5C170.799 37.5 160 48.3907 160 61.8438L160 658.156C160 671.609 170.799 682.5 184.125 682.5L205.625 682.5C214.174 682.5 221.094 688.675 221.094 696.281L221.094 708.688L221.094 746.188C221.094 755.196 228.327 762.5 237.25 762.5L564.938 762.5C573.861 762.5 581.094 755.197 581.094 746.188L581.094 708.688L581.094 696.281C581.094 688.675 588.045 682.5 596.594 682.5L610.156 682.5L615.875 682.5C629.201 682.5 640 671.609 640 658.156L640 61.8438C640 48.3908 629.201 37.5 615.875 37.5L184.125 37.5ZM204.812 612.5C218.62 612.5 229.812 623.693 229.812 637.5C229.812 651.307 218.62 662.5 204.812 662.5C191.005 662.5 179.812 651.307 179.812 637.5C179.812 623.693 191.005 612.5 204.812 612.5ZM595 612.5C608.807 612.5 620 623.693 620 637.5C620 651.307 608.807 662.5 595 662.5C581.193 662.5 570 651.307 570 637.5C570 623.693 581.193 612.5 595 612.5ZM242.281 712.5L270.281 712.5C270.834 712.5 271.281 712.948 271.281 713.5L271.281 741.5C271.281 742.052 270.834 742.5 270.281 742.5L242.281 742.5C241.729 742.5 241.281 742.052 241.281 741.5L241.281 713.5C241.281 712.948 241.729 712.5 242.281 712.5ZM304.188 712.5C312.472 712.5 319.187 719.216 319.188 727.5C319.188 735.784 312.472 742.5 304.188 742.5C295.903 742.5 289.188 735.784 289.188 727.5C289.188 719.216 295.903 712.5 304.188 712.5ZM352.094 712.5C360.378 712.5 367.094 719.216 367.094 727.5C367.094 735.784 360.378 742.5 352.094 742.5C343.809 742.5 337.094 735.784 337.094 727.5C337.094 719.216 343.809 712.5 352.094 712.5ZM400 712.5C408.284 712.5 415 719.216 415 727.5C415 735.784 408.284 742.5 400 742.5C391.716 742.5 385 735.784 385 727.5C385 719.216 391.716 712.5 400 712.5ZM447.906 712.5C456.191 712.5 462.906 719.216 462.906 727.5C462.906 735.784 456.191 742.5 447.906 742.5C439.622 742.5 432.906 735.784 432.906 727.5C432.906 719.216 439.622 712.5 447.906 712.5ZM495.812 712.5C504.097 712.5 510.812 719.216 510.812 727.5C510.812 735.784 504.097 742.5 495.812 742.5C487.528 742.5 480.813 735.784 480.812 727.5C480.812 719.216 487.528 712.5 495.812 712.5ZM543.719 712.5C552.003 712.5 558.719 719.216 558.719 727.5C558.719 735.784 552.003 742.5 543.719 742.5C535.434 742.5 528.719 735.784 528.719 727.5C528.719 719.216 535.434 712.5 543.719 712.5Z" fill="#1e1a19" fill-rule="nonzero" opacity="1" stroke="none"/>
<g opacity="1">
<path d="M175 52.5L625 52.5L625 502.5L175 502.5L175 52.5Z" fill="url(#LinearGradient)" fill-rule="nonzero" opacity="1" stroke="#a6a3a4" stroke-linecap="round" stroke-linejoin="round" stroke-width="0.656"/>
<path d="M223.651 549.917L574.948 549.917C580.926 549.917 585.772 554.763 585.772 560.741L585.772 563.791C585.772 569.768 580.926 574.614 574.948 574.614L223.651 574.614C217.673 574.614 212.827 569.768 212.827 563.791L212.827 560.741C212.827 554.763 217.673 549.917 223.651 549.917Z" fill="#6e5d55" fill-rule="nonzero" opacity="1" stroke="none"/>
<path d="M160 503.86L640 503.86L640 563.86L160 563.86L160 503.86Z" fill="#000000" fill-rule="nonzero" opacity="1" stroke="none"/>
</g>
<g opacity="1">
<g opacity="1">
<g fill="#ffffff" opacity="1" stroke="none">
<path d="M258.295 673.434L261.588 673.434C262.025 673.434 262.375 673.477 262.637 673.562C262.898 673.648 263.135 673.807 263.346 674.037C263.557 674.268 263.76 674.562 263.955 674.922C264.518 675.961 264.928 676.961 265.185 677.922C265.443 678.883 265.572 679.93 265.572 681.062C265.572 682.383 265.369 683.586 264.963 684.672C264.557 685.758 263.967 686.684 263.193 687.449C262.42 688.215 261.482 688.803 260.381 689.213C259.279 689.623 258.049 689.828 256.689 689.828C255.353 689.828 254.131 689.629 253.021 689.23C251.912 688.832 250.971 688.246 250.197 687.473C249.424 686.699 248.832 685.758 248.422 684.648C248.012 683.539 247.807 682.281 247.807 680.875C247.807 679.719 247.961 678.695 248.269 677.805C248.578 676.914 248.967 676.191 249.435 675.637C249.904 675.082 250.4 674.664 250.924 674.383C251.447 674.102 251.912 673.961 252.318 673.961C252.756 673.961 253.129 674.123 253.437 674.447C253.746 674.771 253.9 675.16 253.9 675.613C253.9 675.863 253.842 676.104 253.725 676.334C253.607 676.564 253.443 676.758 253.232 676.914C252.56 677.344 252.053 677.707 251.709 678.004C251.365 678.301 251.076 678.701 250.842 679.205C250.607 679.709 250.49 680.352 250.49 681.133C250.49 681.938 250.629 682.656 250.906 683.289C251.184 683.922 251.586 684.463 252.113 684.912C252.641 685.361 253.287 685.705 254.053 685.943C254.818 686.182 255.666 686.301 256.596 686.301C258.611 686.301 260.162 685.838 261.248 684.912C262.334 683.986 262.877 682.695 262.877 681.039C262.877 680.234 262.771 679.479 262.56 678.771C262.35 678.064 262.049 677.348 261.658 676.621L258.869 676.621L258.869 679.316C258.869 679.965 258.771 680.455 258.576 680.787C258.381 681.119 258.049 681.285 257.58 681.285C257.197 681.285 256.881 681.146 256.631 680.869C256.381 680.592 256.256 680.215 256.256 679.738L256.256 675.789C256.256 675.305 256.299 674.895 256.385 674.559C256.471 674.223 256.662 673.951 256.959 673.744C257.256 673.537 257.701 673.434 258.295 673.434Z"/>
<path d="M249.893 665.582L260.018 658.891L249.799 658.891C249.135 658.891 248.637 658.748 248.305 658.463C247.973 658.178 247.807 657.793 247.807 657.309C247.807 656.809 247.973 656.414 248.305 656.125C248.637 655.836 249.135 655.691 249.799 655.691L263.31 655.691C264.818 655.691 265.572 656.316 265.572 657.566C265.572 657.879 265.527 658.16 265.437 658.41C265.348 658.66 265.205 658.895 265.01 659.113C264.814 659.332 264.586 659.535 264.324 659.723C264.062 659.91 263.795 660.098 263.521 660.285L253.514 666.812L263.58 666.812C264.236 666.812 264.732 666.965 265.068 667.27C265.404 667.574 265.572 667.965 265.572 668.441C265.572 668.934 265.402 669.328 265.062 669.625C264.723 669.922 264.228 670.07 263.58 670.07L250.326 670.07C249.764 670.07 249.322 670.008 249.002 669.883C248.65 669.734 248.363 669.488 248.141 669.145C247.918 668.801 247.807 668.43 247.807 668.031C247.807 667.719 247.857 667.451 247.959 667.229C248.06 667.006 248.197 666.811 248.369 666.643C248.541 666.475 248.764 666.303 249.037 666.127C249.31 665.951 249.596 665.77 249.893 665.582Z"/>
<path d="M248.1 649.727L248.1 645.191C248.1 644.012 248.209 643 248.428 642.156C248.646 641.312 249.057 640.547 249.658 639.859C251.189 638.07 253.518 637.176 256.643 637.176C257.674 637.176 258.615 637.266 259.467 637.445C260.318 637.625 261.086 637.902 261.769 638.277C262.453 638.652 263.064 639.133 263.603 639.719C264.018 640.18 264.35 640.684 264.6 641.23C264.85 641.777 265.025 642.365 265.127 642.994C265.228 643.623 265.279 644.332 265.279 645.121L265.279 649.656C265.279 650.289 265.184 650.766 264.992 651.086C264.801 651.406 264.531 651.615 264.184 651.713C263.836 651.811 263.385 651.859 262.83 651.859L250.232 651.859C249.482 651.859 248.939 651.691 248.603 651.355C248.268 651.02 248.1 650.477 248.1 649.727ZM250.853 648.379L262.514 648.379L262.514 645.742C262.514 645.164 262.498 644.711 262.467 644.383C262.435 644.055 262.357 643.715 262.232 643.363C262.107 643.012 261.932 642.707 261.705 642.449C260.721 641.285 259.025 640.703 256.619 640.703C254.924 640.703 253.654 640.959 252.81 641.471C251.967 641.982 251.43 642.613 251.199 643.363C250.969 644.113 250.853 645.02 250.853 646.082L250.853 648.379Z"/>
</g>
<g fill="#ffffff" opacity="1" stroke="none">
<path d="M297.999 686.582L309.518 682.691L297.917 678.789C297.307 678.586 296.883 678.434 296.645 678.332C296.407 678.23 296.192 678.063 296.001 677.828C295.809 677.594 295.713 677.273 295.713 676.867C295.713 676.57 295.788 676.295 295.936 676.041C296.085 675.787 296.282 675.588 296.528 675.443C296.774 675.299 297.022 675.227 297.272 675.227C297.444 675.227 297.63 675.25 297.829 675.297C298.028 675.344 298.223 675.402 298.415 675.473C298.606 675.543 298.803 675.613 299.006 675.684L310.233 679.844C310.663 679.992 311.071 680.141 311.458 680.289C311.844 680.438 312.184 680.609 312.477 680.805C312.77 681 313.01 681.26 313.198 681.584C313.385 681.908 313.479 682.305 313.479 682.773C313.479 683.242 313.387 683.639 313.204 683.963C313.02 684.287 312.778 684.549 312.477 684.748C312.176 684.947 311.835 685.121 311.452 685.27C311.069 685.418 310.663 685.566 310.233 685.715L299.1 689.805C298.897 689.875 298.698 689.947 298.503 690.021C298.307 690.096 298.096 690.158 297.87 690.209C297.643 690.26 297.452 690.285 297.296 690.285C296.897 690.285 296.534 690.125 296.206 689.805C295.878 689.484 295.713 689.082 295.713 688.598C295.713 688.004 295.895 687.584 296.258 687.338C296.622 687.092 297.202 686.84 297.999 686.582Z"/>
<path d="M307.76 658.293C308.307 658.293 308.899 658.428 309.536 658.697C310.172 658.967 310.797 659.391 311.411 659.969C312.024 660.547 312.522 661.285 312.905 662.184C313.288 663.082 313.479 664.129 313.479 665.324C313.479 666.23 313.393 667.055 313.221 667.797C313.049 668.539 312.782 669.213 312.419 669.818C312.055 670.424 311.577 670.98 310.983 671.488C310.444 671.941 309.84 672.328 309.172 672.648C308.505 672.969 307.792 673.209 307.034 673.369C306.276 673.529 305.471 673.609 304.62 673.609C303.237 673.609 301.999 673.408 300.905 673.006C299.811 672.604 298.876 672.027 298.098 671.277C297.321 670.527 296.729 669.648 296.323 668.641C295.917 667.633 295.713 666.559 295.713 665.418C295.713 664.027 295.991 662.789 296.546 661.703C297.1 660.617 297.786 659.785 298.602 659.207C299.419 658.629 300.19 658.34 300.917 658.34C301.315 658.34 301.667 658.48 301.971 658.762C302.276 659.043 302.428 659.383 302.428 659.781C302.428 660.227 302.323 660.561 302.112 660.783C301.901 661.006 301.538 661.254 301.022 661.527C300.171 661.98 299.534 662.514 299.112 663.127C298.69 663.74 298.479 664.496 298.479 665.395C298.479 666.824 299.022 667.963 300.108 668.811C301.194 669.658 302.737 670.082 304.737 670.082C306.073 670.082 307.184 669.895 308.071 669.52C308.958 669.145 309.62 668.613 310.057 667.926C310.495 667.238 310.713 666.434 310.713 665.512C310.713 664.512 310.465 663.666 309.969 662.975C309.473 662.283 308.745 661.762 307.784 661.41C307.331 661.262 306.962 661.078 306.676 660.859C306.391 660.641 306.249 660.289 306.249 659.805C306.249 659.391 306.393 659.035 306.682 658.738C306.971 658.441 307.331 658.293 307.76 658.293Z"/>
<path d="M307.76 640.527C308.307 640.527 308.899 640.662 309.536 640.932C310.172 641.201 310.797 641.625 311.411 642.203C312.024 642.781 312.522 643.52 312.905 644.418C313.288 645.316 313.479 646.363 313.479 647.559C313.479 648.465 313.393 649.289 313.221 650.031C313.049 650.773 312.782 651.447 312.419 652.053C312.055 652.658 311.577 653.215 310.983 653.723C310.444 654.176 309.84 654.562 309.172 654.883C308.505 655.203 307.792 655.443 307.034 655.604C306.276 655.764 305.471 655.844 304.62 655.844C303.237 655.844 301.999 655.643 300.905 655.24C299.811 654.838 298.876 654.262 298.098 653.512C297.321 652.762 296.729 651.883 296.323 650.875C295.917 649.867 295.713 648.793 295.713 647.652C295.713 646.262 295.991 645.023 296.546 643.938C297.1 642.852 297.786 642.02 298.602 641.441C299.419 640.863 300.19 640.574 300.917 640.574C301.315 640.574 301.667 640.715 301.971 640.996C302.276 641.277 302.428 641.617 302.428 642.016C302.428 642.461 302.323 642.795 302.112 643.018C301.901 643.24 301.538 643.488 301.022 643.762C300.171 644.215 299.534 644.748 299.112 645.361C298.69 645.975 298.479 646.73 298.479 647.629C298.479 649.059 299.022 650.197 300.108 651.045C301.194 651.893 302.737 652.316 304.737 652.316C306.073 652.316 307.184 652.129 308.071 651.754C308.958 651.379 309.62 650.848 310.057 650.16C310.495 649.473 310.713 648.668 310.713 647.746C310.713 646.746 310.465 645.9 309.969 645.209C309.473 644.518 308.745 643.996 307.784 643.645C307.331 643.496 306.962 643.313 306.676 643.094C306.391 642.875 306.249 642.523 306.249 642.039C306.249 641.625 306.393 641.27 306.682 640.973C306.971 640.676 307.331 640.527 307.76 640.527Z"/>
</g>
<g fill="#ffffff" opacity="1" stroke="none">
<path d="M355.937 676.07C356.976 676.07 357.909 676.338 358.738 676.873C359.566 677.408 360.214 678.191 360.683 679.223C361.152 680.254 361.386 681.477 361.386 682.891C361.386 684.586 361.066 685.984 360.425 687.086C359.964 687.867 359.349 688.502 358.579 688.99C357.81 689.479 357.062 689.723 356.335 689.723C355.913 689.723 355.552 689.576 355.251 689.283C354.95 688.99 354.8 688.617 354.8 688.164C354.8 687.797 354.917 687.486 355.152 687.232C355.386 686.979 355.734 686.762 356.195 686.582C356.742 686.363 357.199 686.127 357.566 685.873C357.933 685.619 358.236 685.262 358.474 684.801C358.712 684.34 358.831 683.734 358.831 682.984C358.831 681.953 358.591 681.115 358.111 680.471C357.63 679.826 357.031 679.504 356.312 679.504C355.742 679.504 355.279 679.678 354.923 680.025C354.568 680.373 354.296 680.822 354.109 681.373C353.921 681.924 353.722 682.66 353.511 683.582C353.222 684.816 352.884 685.85 352.497 686.682C352.111 687.514 351.583 688.174 350.915 688.662C350.247 689.15 349.417 689.395 348.425 689.395C347.48 689.395 346.64 689.137 345.906 688.621C345.171 688.105 344.607 687.359 344.212 686.383C343.818 685.406 343.62 684.258 343.62 682.938C343.62 681.883 343.751 680.971 344.013 680.201C344.275 679.432 344.622 678.793 345.056 678.285C345.49 677.777 345.945 677.406 346.421 677.172C346.898 676.937 347.363 676.82 347.816 676.82C348.23 676.82 348.603 676.967 348.935 677.26C349.267 677.553 349.433 677.918 349.433 678.355C349.433 678.754 349.333 679.057 349.134 679.264C348.935 679.471 348.609 679.695 348.156 679.938C347.507 680.25 347.001 680.625 346.638 681.062C346.275 681.5 346.093 682.203 346.093 683.172C346.093 684.07 346.29 684.795 346.685 685.346C347.079 685.896 347.554 686.172 348.109 686.172C348.452 686.172 348.749 686.078 348.999 685.891C349.249 685.703 349.464 685.445 349.644 685.117C349.824 684.789 349.964 684.457 350.066 684.121C350.167 683.785 350.316 683.23 350.511 682.457C350.738 681.488 350.988 680.611 351.261 679.826C351.534 679.041 351.867 678.373 352.257 677.822C352.648 677.271 353.142 676.842 353.74 676.533C354.337 676.225 355.07 676.07 355.937 676.07Z"/>
<path d="M355.667 658.48C356.214 658.48 356.806 658.615 357.443 658.885C358.079 659.154 358.704 659.578 359.318 660.156C359.931 660.734 360.429 661.473 360.812 662.371C361.195 663.27 361.386 664.316 361.386 665.512C361.386 666.418 361.3 667.242 361.128 667.984C360.956 668.727 360.689 669.4 360.325 670.006C359.962 670.611 359.484 671.168 358.89 671.676C358.351 672.129 357.747 672.516 357.079 672.836C356.411 673.156 355.699 673.396 354.941 673.557C354.183 673.717 353.378 673.797 352.527 673.797C351.144 673.797 349.906 673.596 348.812 673.193C347.718 672.791 346.783 672.215 346.005 671.465C345.228 670.715 344.636 669.836 344.23 668.828C343.824 667.82 343.62 666.746 343.62 665.605C343.62 664.215 343.898 662.977 344.452 661.891C345.007 660.805 345.693 659.973 346.509 659.395C347.325 658.816 348.097 658.527 348.824 658.527C349.222 658.527 349.574 658.668 349.878 658.949C350.183 659.23 350.335 659.57 350.335 659.969C350.335 660.414 350.23 660.748 350.019 660.971C349.808 661.193 349.445 661.441 348.929 661.715C348.077 662.168 347.441 662.701 347.019 663.314C346.597 663.928 346.386 664.684 346.386 665.582C346.386 667.012 346.929 668.15 348.015 668.998C349.101 669.846 350.644 670.27 352.644 670.27C353.98 670.27 355.091 670.082 355.978 669.707C356.865 669.332 357.527 668.801 357.964 668.113C358.402 667.426 358.62 666.621 358.62 665.699C358.62 664.699 358.372 663.854 357.876 663.162C357.38 662.471 356.652 661.949 355.691 661.598C355.238 661.449 354.868 661.266 354.583 661.047C354.298 660.828 354.156 660.477 354.156 659.992C354.156 659.578 354.3 659.223 354.589 658.926C354.878 658.629 355.238 658.48 355.667 658.48Z"/>
<path d="M345.73 651.941L358.234 651.941L358.234 644.887C358.234 644.324 358.37 643.893 358.644 643.592C358.917 643.291 359.261 643.141 359.675 643.141C360.097 643.141 360.439 643.289 360.7 643.586C360.962 643.883 361.093 644.316 361.093 644.887L361.093 653.289C361.093 654.047 360.925 654.592 360.589 654.924C360.253 655.256 359.71 655.422 358.96 655.422L345.73 655.422C345.027 655.422 344.499 655.264 344.148 654.947C343.796 654.631 343.62 654.215 343.62 653.699C343.62 653.176 343.794 652.752 344.142 652.428C344.49 652.104 345.019 651.941 345.73 651.941Z"/>
</g>
<g fill="#ffffff" opacity="1" stroke="none">
<path d="M403.844 676.07C404.883 676.07 405.816 676.338 406.645 676.873C407.473 677.408 408.121 678.191 408.59 679.223C409.059 680.254 409.293 681.477 409.293 682.891C409.293 684.586 408.973 685.984 408.332 687.086C407.871 687.867 407.256 688.502 406.486 688.99C405.717 689.479 404.969 689.723 404.242 689.723C403.82 689.723 403.459 689.576 403.158 689.283C402.857 688.99 402.707 688.617 402.707 688.164C402.707 687.797 402.824 687.486 403.059 687.232C403.293 686.979 403.641 686.762 404.102 686.582C404.648 686.363 405.105 686.127 405.473 685.873C405.84 685.619 406.143 685.262 406.381 684.801C406.619 684.34 406.738 683.734 406.738 682.984C406.738 681.953 406.498 681.115 406.018 680.471C405.537 679.826 404.938 679.504 404.219 679.504C403.648 679.504 403.186 679.678 402.83 680.025C402.475 680.373 402.203 680.822 402.016 681.373C401.828 681.924 401.629 682.66 401.418 683.582C401.129 684.816 400.791 685.85 400.404 686.682C400.018 687.514 399.49 688.174 398.822 688.662C398.154 689.15 397.324 689.395 396.332 689.395C395.387 689.395 394.547 689.137 393.812 688.621C393.078 688.105 392.514 687.359 392.119 686.383C391.725 685.406 391.527 684.258 391.527 682.938C391.527 681.883 391.658 680.971 391.92 680.201C392.182 679.432 392.529 678.793 392.963 678.285C393.396 677.777 393.852 677.406 394.328 677.172C394.805 676.937 395.27 676.82 395.723 676.82C396.137 676.82 396.51 676.967 396.842 677.26C397.174 677.553 397.34 677.918 397.34 678.355C397.34 678.754 397.24 679.057 397.041 679.264C396.842 679.471 396.516 679.695 396.062 679.938C395.414 680.25 394.908 680.625 394.545 681.062C394.182 681.5 394 682.203 394 683.172C394 684.07 394.197 684.795 394.592 685.346C394.986 685.896 395.461 686.172 396.016 686.172C396.359 686.172 396.656 686.078 396.906 685.891C397.156 685.703 397.371 685.445 397.551 685.117C397.73 684.789 397.871 684.457 397.973 684.121C398.074 683.785 398.223 683.23 398.418 682.457C398.645 681.488 398.895 680.611 399.168 679.826C399.441 679.041 399.773 678.373 400.164 677.822C400.555 677.271 401.049 676.842 401.646 676.533C402.244 676.225 402.977 676.07 403.844 676.07Z"/>
<path d="M391.82 670.961L391.82 666.426C391.82 665.246 391.93 664.234 392.148 663.391C392.367 662.547 392.777 661.781 393.379 661.094C394.91 659.305 397.238 658.41 400.363 658.41C401.395 658.41 402.336 658.5 403.188 658.68C404.039 658.859 404.807 659.137 405.49 659.512C406.174 659.887 406.785 660.367 407.324 660.953C407.738 661.414 408.07 661.918 408.32 662.465C408.57 663.012 408.746 663.6 408.848 664.229C408.949 664.857 409 665.566 409 666.355L409 670.891C409 671.523 408.904 672 408.713 672.32C408.521 672.641 408.252 672.85 407.904 672.947C407.557 673.045 407.105 673.094 406.551 673.094L393.953 673.094C393.203 673.094 392.66 672.926 392.324 672.59C391.988 672.254 391.82 671.711 391.82 670.961ZM394.574 669.613L406.234 669.613L406.234 666.977C406.234 666.398 406.219 665.945 406.188 665.617C406.156 665.289 406.078 664.949 405.953 664.598C405.828 664.246 405.652 663.941 405.426 663.684C404.441 662.52 402.746 661.938 400.34 661.938C398.645 661.938 397.375 662.193 396.531 662.705C395.687 663.217 395.15 663.848 394.92 664.598C394.689 665.348 394.574 666.254 394.574 667.316L394.574 669.613Z"/>
<path d="M407.055 645.273L404.898 646.094L404.898 653.078L407.102 653.898C407.961 654.219 408.541 654.492 408.842 654.719C409.143 654.945 409.293 655.316 409.293 655.832C409.293 656.27 409.133 656.656 408.812 656.992C408.492 657.328 408.129 657.496 407.723 657.496C407.488 657.496 407.246 657.457 406.996 657.379C406.746 657.301 406.398 657.172 405.953 656.992L394.797 652.598C394.477 652.473 394.092 652.322 393.643 652.146C393.193 651.971 392.82 651.783 392.523 651.584C392.227 651.385 391.986 651.123 391.803 650.799C391.619 650.475 391.527 650.074 391.527 649.598C391.527 649.113 391.619 648.709 391.803 648.385C391.986 648.061 392.223 647.799 392.512 647.6C392.801 647.4 393.111 647.232 393.443 647.096C393.775 646.959 394.219 646.785 394.773 646.574L405.859 642.086C406.703 641.734 407.316 641.559 407.699 641.559C408.098 641.559 408.463 641.725 408.795 642.057C409.127 642.389 409.293 642.789 409.293 643.258C409.293 643.531 409.244 643.766 409.146 643.961C409.049 644.156 408.916 644.32 408.748 644.453C408.58 644.586 408.322 644.729 407.975 644.881C407.627 645.033 407.32 645.164 407.055 645.273ZM402.285 652.164L402.285 647.031L395.195 649.621L402.285 652.164Z"/>
</g>
<g fill="#ffffff" opacity="1" stroke="none">
<path d="M449.559 684.449L449.559 685.668L455.079 685.668C455.805 685.668 456.341 685.828 456.684 686.148C457.028 686.469 457.2 686.887 457.2 687.402C457.2 687.957 457.02 688.387 456.661 688.691C456.301 688.996 455.774 689.148 455.079 689.148L441.86 689.148C441.11 689.148 440.567 688.98 440.231 688.645C439.895 688.309 439.727 687.766 439.727 687.016L439.727 681.355C439.727 680.574 439.76 679.906 439.827 679.352C439.893 678.797 440.028 678.297 440.231 677.852C440.458 677.312 440.782 676.836 441.204 676.422C441.626 676.008 442.116 675.693 442.675 675.479C443.233 675.264 443.825 675.156 444.45 675.156C445.731 675.156 446.755 675.518 447.52 676.24C448.286 676.963 448.829 678.059 449.149 679.527C449.477 678.91 449.962 678.32 450.602 677.758C451.243 677.195 451.925 676.693 452.647 676.252C453.37 675.811 454.022 675.467 454.604 675.221C455.186 674.975 455.587 674.852 455.805 674.852C456.032 674.852 456.257 674.924 456.479 675.068C456.702 675.213 456.878 675.41 457.007 675.66C457.135 675.91 457.2 676.199 457.2 676.527C457.2 676.918 457.108 677.246 456.925 677.512C456.741 677.777 456.508 678.006 456.227 678.197C455.946 678.389 455.532 678.648 454.985 678.977L452.665 680.371C451.813 680.871 451.165 681.318 450.719 681.713C450.274 682.107 449.969 682.508 449.805 682.914C449.641 683.32 449.559 683.832 449.559 684.449ZM442.341 682.457L442.341 685.668L447.063 685.668L447.063 682.551C447.063 681.715 446.991 681.012 446.846 680.441C446.702 679.871 446.456 679.436 446.108 679.135C445.76 678.834 445.282 678.684 444.673 678.684C444.196 678.684 443.776 678.805 443.413 679.047C443.05 679.289 442.778 679.625 442.598 680.055C442.426 680.461 442.341 681.262 442.341 682.457Z"/>
<path d="M442.411 660.543L442.411 668.383L446.63 668.383L446.63 661.164C446.63 660.633 446.749 660.236 446.987 659.975C447.225 659.713 447.54 659.582 447.93 659.582C448.321 659.582 448.639 659.711 448.885 659.969C449.132 660.227 449.255 660.625 449.255 661.164L449.255 668.383L454.141 668.383L454.141 660.273C454.141 659.727 454.268 659.314 454.522 659.037C454.776 658.76 455.114 658.621 455.536 658.621C455.942 658.621 456.272 658.76 456.526 659.037C456.78 659.314 456.907 659.727 456.907 660.273L456.907 669.73C456.907 670.488 456.739 671.033 456.403 671.365C456.067 671.697 455.524 671.863 454.774 671.863L441.86 671.863C441.36 671.863 440.952 671.789 440.635 671.641C440.319 671.492 440.089 671.26 439.944 670.943C439.8 670.627 439.727 670.223 439.727 669.73L439.727 660.543C439.727 659.988 439.85 659.576 440.096 659.307C440.342 659.037 440.665 658.902 441.063 658.902C441.469 658.902 441.796 659.037 442.042 659.307C442.288 659.576 442.411 659.988 442.411 660.543Z"/>
<path d="M451.751 642.801C452.79 642.801 453.723 643.068 454.551 643.604C455.38 644.139 456.028 644.922 456.497 645.953C456.966 646.984 457.2 648.207 457.2 649.621C457.2 651.316 456.88 652.715 456.239 653.816C455.778 654.598 455.163 655.232 454.393 655.721C453.624 656.209 452.876 656.453 452.149 656.453C451.727 656.453 451.366 656.307 451.065 656.014C450.764 655.721 450.614 655.348 450.614 654.895C450.614 654.527 450.731 654.217 450.966 653.963C451.2 653.709 451.548 653.492 452.008 653.312C452.555 653.094 453.012 652.857 453.38 652.604C453.747 652.35 454.05 651.992 454.288 651.531C454.526 651.07 454.645 650.465 454.645 649.715C454.645 648.684 454.405 647.846 453.925 647.201C453.444 646.557 452.844 646.234 452.126 646.234C451.555 646.234 451.092 646.408 450.737 646.756C450.382 647.104 450.11 647.553 449.923 648.104C449.735 648.654 449.536 649.391 449.325 650.312C449.036 651.547 448.698 652.58 448.311 653.412C447.925 654.244 447.397 654.904 446.729 655.393C446.061 655.881 445.231 656.125 444.239 656.125C443.294 656.125 442.454 655.867 441.719 655.352C440.985 654.836 440.421 654.09 440.026 653.113C439.632 652.137 439.434 650.988 439.434 649.668C439.434 648.613 439.565 647.701 439.827 646.932C440.089 646.162 440.436 645.523 440.87 645.016C441.303 644.508 441.758 644.137 442.235 643.902C442.712 643.668 443.176 643.551 443.63 643.551C444.044 643.551 444.417 643.697 444.749 643.99C445.081 644.283 445.247 644.648 445.247 645.086C445.247 645.484 445.147 645.787 444.948 645.994C444.749 646.201 444.423 646.426 443.969 646.668C443.321 646.98 442.815 647.355 442.452 647.793C442.089 648.23 441.907 648.934 441.907 649.902C441.907 650.801 442.104 651.525 442.499 652.076C442.893 652.627 443.368 652.902 443.923 652.902C444.266 652.902 444.563 652.809 444.813 652.621C445.063 652.434 445.278 652.176 445.458 651.848C445.637 651.52 445.778 651.188 445.88 650.852C445.981 650.516 446.13 649.961 446.325 649.188C446.551 648.219 446.801 647.342 447.075 646.557C447.348 645.771 447.68 645.104 448.071 644.553C448.462 644.002 448.956 643.572 449.553 643.264C450.151 642.955 450.883 642.801 451.751 642.801Z"/>
</g>
<g fill="#ffffff" opacity="1" stroke="none">
<path d="M487.634 686.969L487.634 682.434C487.634 681.254 487.744 680.242 487.962 679.398C488.181 678.555 488.591 677.789 489.193 677.102C490.724 675.312 493.052 674.418 496.177 674.418C497.208 674.418 498.15 674.508 499.001 674.688C499.853 674.867 500.62 675.145 501.304 675.52C501.988 675.895 502.599 676.375 503.138 676.961C503.552 677.422 503.884 677.926 504.134 678.473C504.384 679.02 504.56 679.607 504.662 680.236C504.763 680.865 504.814 681.574 504.814 682.363L504.814 686.898C504.814 687.531 504.718 688.008 504.527 688.328C504.335 688.648 504.066 688.857 503.718 688.955C503.37 689.053 502.919 689.102 502.365 689.102L489.767 689.102C489.017 689.102 488.474 688.934 488.138 688.598C487.802 688.262 487.634 687.719 487.634 686.969ZM490.388 685.621L502.048 685.621L502.048 682.984C502.048 682.406 502.033 681.953 502.001 681.625C501.97 681.297 501.892 680.957 501.767 680.605C501.642 680.254 501.466 679.949 501.24 679.691C500.255 678.527 498.56 677.945 496.154 677.945C494.458 677.945 493.189 678.201 492.345 678.713C491.501 679.225 490.964 679.855 490.734 680.605C490.503 681.355 490.388 682.262 490.388 683.324L490.388 685.621Z"/>
<path d="M499.388 656.723C499.935 656.723 500.527 656.857 501.163 657.127C501.8 657.396 502.425 657.82 503.038 658.398C503.652 658.977 504.15 659.715 504.533 660.613C504.915 661.512 505.107 662.559 505.107 663.754C505.107 664.66 505.021 665.484 504.849 666.227C504.677 666.969 504.41 667.643 504.046 668.248C503.683 668.854 503.204 669.41 502.611 669.918C502.072 670.371 501.468 670.758 500.8 671.078C500.132 671.398 499.419 671.639 498.662 671.799C497.904 671.959 497.099 672.039 496.247 672.039C494.865 672.039 493.626 671.838 492.533 671.436C491.439 671.033 490.503 670.457 489.726 669.707C488.949 668.957 488.357 668.078 487.951 667.07C487.544 666.062 487.341 664.988 487.341 663.848C487.341 662.457 487.619 661.219 488.173 660.133C488.728 659.047 489.413 658.215 490.23 657.637C491.046 657.059 491.818 656.77 492.544 656.77C492.943 656.77 493.294 656.91 493.599 657.191C493.904 657.473 494.056 657.812 494.056 658.211C494.056 658.656 493.951 658.99 493.74 659.213C493.529 659.436 493.165 659.684 492.65 659.957C491.798 660.41 491.162 660.943 490.74 661.557C490.318 662.17 490.107 662.926 490.107 663.824C490.107 665.254 490.65 666.393 491.736 667.24C492.822 668.088 494.365 668.512 496.365 668.512C497.701 668.512 498.812 668.324 499.699 667.949C500.585 667.574 501.247 667.043 501.685 666.355C502.122 665.668 502.341 664.863 502.341 663.941C502.341 662.941 502.093 662.096 501.597 661.404C501.101 660.713 500.372 660.191 499.412 659.84C498.958 659.691 498.589 659.508 498.304 659.289C498.019 659.07 497.876 658.719 497.876 658.234C497.876 657.82 498.021 657.465 498.31 657.168C498.599 656.871 498.958 656.723 499.388 656.723Z"/>
</g>
<g fill="#ffffff" opacity="1" stroke="none">
<path d="M552.721 681.789L552.721 687.039C552.721 687.797 552.551 688.338 552.211 688.662C551.871 688.986 551.33 689.148 550.588 689.148L537.674 689.148C536.916 689.148 536.371 688.982 536.039 688.65C535.707 688.318 535.541 687.781 535.541 687.039L535.541 681.473C535.541 680.652 535.592 679.941 535.693 679.34C535.795 678.738 535.99 678.199 536.279 677.723C536.522 677.316 536.828 676.957 537.199 676.645C537.57 676.332 537.981 676.094 538.43 675.93C538.879 675.766 539.354 675.684 539.854 675.684C541.572 675.684 542.83 676.543 543.627 678.262C544.346 676.004 545.744 674.875 547.822 674.875C548.783 674.875 549.649 675.121 550.418 675.613C551.188 676.105 551.756 676.77 552.123 677.605C552.342 678.129 552.496 678.73 552.586 679.41C552.676 680.09 552.721 680.883 552.721 681.789ZM545.092 682.047L545.092 685.668L550.107 685.668L550.107 681.93C550.107 679.578 549.26 678.402 547.565 678.402C546.697 678.402 546.068 678.707 545.678 679.316C545.287 679.926 545.092 680.836 545.092 682.047ZM538.154 685.668L542.596 685.668L542.596 682.48C542.596 681.613 542.514 680.943 542.35 680.471C542.186 679.998 541.873 679.637 541.412 679.387C541.084 679.191 540.717 679.094 540.311 679.094C539.443 679.094 538.867 679.402 538.582 680.02C538.297 680.637 538.154 681.578 538.154 682.844L538.154 685.668Z"/>
<path d="M537.357 668.453L549.861 668.453L549.861 661.398C549.861 660.836 549.998 660.404 550.272 660.104C550.545 659.803 550.889 659.652 551.303 659.652C551.725 659.652 552.066 659.801 552.328 660.098C552.59 660.395 552.721 660.828 552.721 661.398L552.721 669.801C552.721 670.559 552.553 671.104 552.217 671.436C551.881 671.768 551.338 671.934 550.588 671.934L537.357 671.934C536.654 671.934 536.127 671.775 535.775 671.459C535.424 671.143 535.248 670.727 535.248 670.211C535.248 669.687 535.422 669.264 535.77 668.939C536.117 668.615 536.647 668.453 537.357 668.453Z"/>
<path d="M537.357 653.863L543.381 653.863L536.256 647.031C535.912 646.703 535.658 646.424 535.494 646.193C535.33 645.963 535.248 645.656 535.248 645.273C535.248 644.773 535.395 644.369 535.688 644.061C535.981 643.752 536.338 643.598 536.76 643.598C537.268 643.598 537.772 643.859 538.272 644.383L542.279 648.613L549.264 643.738C549.748 643.395 550.172 643.137 550.535 642.965C550.899 642.793 551.252 642.707 551.596 642.707C551.979 642.707 552.311 642.857 552.592 643.158C552.873 643.459 553.014 643.867 553.014 644.383C553.014 644.867 552.91 645.262 552.703 645.566C552.496 645.871 552.221 646.129 551.877 646.34C551.533 646.551 551.221 646.738 550.94 646.902L544.611 651.016L547.342 653.863L550.893 653.863C551.611 653.863 552.145 654.027 552.492 654.355C552.84 654.684 553.014 655.105 553.014 655.621C553.014 655.918 552.936 656.203 552.779 656.477C552.623 656.75 552.412 656.961 552.147 657.109C551.928 657.219 551.674 657.285 551.385 657.309C551.096 657.332 550.678 657.344 550.131 657.344L537.357 657.344C536.654 657.344 536.127 657.189 535.775 656.881C535.424 656.572 535.248 656.152 535.248 655.621C535.248 655.098 535.422 654.674 535.77 654.35C536.117 654.025 536.647 653.863 537.357 653.863Z"/>
</g>
</g>
<g opacity="1">
<path d="M289.186 727.5C289.186 719.216 295.902 712.5 304.186 712.5C312.47 712.5 319.186 719.216 319.186 727.5C319.186 735.784 312.47 742.5 304.186 742.5C295.902 742.5 289.186 735.784 289.186 727.5Z" fill="none" opacity="1" stroke="#facd77" stroke-linecap="butt" stroke-linejoin="miter" stroke-width="10"/>
<path d="M337.093 727.5C337.093 719.216 343.809 712.5 352.093 712.5C360.377 712.5 367.093 719.216 367.093 727.5C367.093 735.784 360.377 742.5 352.093 742.5C343.809 742.5 337.093 735.784 337.093 727.5Z" fill="none" opacity="1" stroke="#facd77" stroke-linecap="butt" stroke-linejoin="miter" stroke-width="10"/>
<path d="M385 727.5C385 719.216 391.716 712.5 400 712.5C408.284 712.5 415 719.216 415 727.5C415 735.784 408.284 742.5 400 742.5C391.716 742.5 385 735.784 385 727.5Z" fill="none" opacity="1" stroke="#facd77" stroke-linecap="butt" stroke-linejoin="miter" stroke-width="10"/>
<path d="M432.907 727.5C432.907 719.216 439.623 712.5 447.907 712.5C456.191 712.5 462.907 719.216 462.907 727.5C462.907 735.784 456.191 742.5 447.907 742.5C439.623 742.5 432.907 735.784 432.907 727.5Z" fill="none" opacity="1" stroke="#facd77" stroke-linecap="butt" stroke-linejoin="miter" stroke-width="10"/>
<path d="M480.814 727.5C480.814 719.216 487.53 712.5 495.814 712.5C504.098 712.5 510.814 719.216 510.814 727.5C510.814 735.784 504.098 742.5 495.814 742.5C487.53 742.5 480.814 735.784 480.814 727.5Z" fill="none" opacity="1" stroke="#facd77" stroke-linecap="butt" stroke-linejoin="miter" stroke-width="10"/>
<path d="M528.721 727.5C528.721 719.216 535.437 712.5 543.721 712.5C552.005 712.5 558.721 719.216 558.721 727.5C558.721 735.784 552.005 742.5 543.721 742.5C535.437 742.5 528.721 735.784 528.721 727.5Z" fill="none" opacity="1" stroke="#facd77" stroke-linecap="butt" stroke-linejoin="miter" stroke-width="10"/>
<path d="M242.279 712.5L270.279 712.5C270.832 712.5 271.279 712.948 271.279 713.5L271.279 741.5C271.279 742.052 270.832 742.5 270.279 742.5L242.279 742.5C241.727 742.5 241.279 742.052 241.279 741.5L241.279 713.5C241.279 712.948 241.727 712.5 242.279 712.5Z" fill="none" opacity="1" stroke="#facd77" stroke-linecap="butt" stroke-linejoin="miter" stroke-width="10"/>
</g>
</g>
<g opacity="1">
<g fill="#ffffff" opacity="1" stroke="none">
<path d="M333.53 596.678L333.53 614.391L343.524 614.391C344.321 614.391 344.933 614.585 345.359 614.973C345.785 615.36 345.998 615.847 345.998 616.433C345.998 617.031 345.788 617.515 345.367 617.886C344.946 618.257 344.332 618.442 343.524 618.442L331.621 618.442C330.547 618.442 329.775 618.204 329.305 617.728C328.834 617.252 328.599 616.483 328.599 615.421L328.599 596.678C328.599 595.682 328.823 594.934 329.271 594.436C329.72 593.938 330.309 593.689 331.04 593.689C331.781 593.689 332.382 593.936 332.841 594.428C333.3 594.921 333.53 595.67 333.53 596.678Z"/>
<path d="M368.278 610.756C368.278 611.53 368.087 612.369 367.705 613.271C367.323 614.173 366.723 615.058 365.903 615.927C365.084 616.796 364.039 617.501 362.766 618.044C361.493 618.586 360.01 618.857 358.316 618.857C357.033 618.857 355.865 618.736 354.813 618.492C353.762 618.249 352.807 617.869 351.95 617.355C351.092 616.84 350.303 616.162 349.584 615.321C348.942 614.557 348.394 613.703 347.94 612.756C347.486 611.81 347.146 610.8 346.919 609.726C346.692 608.653 346.579 607.513 346.579 606.307C346.579 604.348 346.864 602.593 347.434 601.044C348.004 599.494 348.82 598.169 349.883 597.068C350.945 595.967 352.19 595.128 353.618 594.553C355.046 593.977 356.568 593.689 358.184 593.689C360.154 593.689 361.908 594.082 363.446 594.868C364.985 595.654 366.164 596.625 366.983 597.782C367.802 598.938 368.211 600.031 368.211 601.06C368.211 601.625 368.012 602.123 367.613 602.555C367.215 602.986 366.734 603.202 366.169 603.202C365.538 603.202 365.065 603.053 364.75 602.754C364.434 602.455 364.083 601.94 363.695 601.21C363.053 600.003 362.298 599.101 361.429 598.504C360.56 597.906 359.49 597.607 358.217 597.607C356.191 597.607 354.578 598.376 353.377 599.915C352.177 601.453 351.576 603.639 351.576 606.473C351.576 608.365 351.842 609.939 352.373 611.196C352.904 612.452 353.657 613.39 354.631 614.01C355.605 614.629 356.745 614.939 358.051 614.939C359.467 614.939 360.666 614.588 361.645 613.885C362.625 613.182 363.363 612.15 363.861 610.789C364.072 610.147 364.332 609.624 364.642 609.22C364.952 608.816 365.45 608.614 366.136 608.614C366.723 608.614 367.226 608.819 367.647 609.228C368.067 609.638 368.278 610.147 368.278 610.756Z"/>
<path d="M375.765 594.104L382.19 594.104C383.861 594.104 385.294 594.259 386.49 594.569C387.685 594.879 388.77 595.46 389.744 596.312C392.278 598.482 393.546 601.78 393.546 606.207C393.546 607.668 393.418 609.001 393.164 610.208C392.909 611.414 392.516 612.502 391.985 613.47C391.454 614.439 390.773 615.305 389.943 616.068C389.29 616.655 388.576 617.125 387.801 617.479C387.027 617.834 386.194 618.083 385.303 618.226C384.412 618.37 383.407 618.442 382.29 618.442L375.865 618.442C374.968 618.442 374.293 618.307 373.839 618.036C373.385 617.764 373.089 617.383 372.951 616.89C372.813 616.397 372.743 615.758 372.743 614.973L372.743 597.126C372.743 596.063 372.981 595.294 373.457 594.818C373.933 594.342 374.702 594.104 375.765 594.104ZM377.674 598.006L377.674 614.524L381.41 614.524C382.229 614.524 382.871 614.502 383.335 614.458C383.8 614.414 384.282 614.303 384.78 614.126C385.278 613.949 385.709 613.7 386.075 613.379C387.724 611.984 388.548 609.583 388.548 606.174C388.548 603.772 388.186 601.973 387.461 600.778C386.736 599.583 385.842 598.822 384.78 598.495C383.717 598.169 382.433 598.006 380.928 598.006L377.674 598.006Z"/>
</g>
<path d="M413.281 586.438C407.758 586.438 403.281 590.915 403.281 596.438L403.281 615.438C403.281 620.96 407.758 625.438 413.281 625.438L465.469 625.438C470.991 625.438 475.469 620.96 475.469 615.438L475.469 596.438C475.469 590.915 470.992 586.438 465.469 586.438L413.281 586.438ZM422.781 593.688C424.275 593.688 425.566 593.879 426.656 594.25C427.746 594.621 428.656 595.104 429.375 595.719C430.094 596.333 430.637 596.981 430.969 597.656C431.301 598.331 431.469 598.983 431.469 599.625C431.469 600.212 431.259 600.748 430.844 601.219C430.429 601.689 429.901 601.937 429.281 601.938C428.717 601.938 428.293 601.782 428 601.5C427.707 601.218 427.374 600.767 427.031 600.125C426.589 599.206 426.057 598.483 425.438 597.969C424.818 597.454 423.841 597.188 422.469 597.188C421.196 597.188 420.155 597.472 419.375 598.031C418.595 598.59 418.219 599.277 418.219 600.062C418.219 600.549 418.328 600.958 418.594 601.312C418.859 601.667 419.223 601.964 419.688 602.219C420.152 602.473 420.649 602.669 421.125 602.812C421.601 602.956 422.373 603.161 423.469 603.438C424.841 603.758 426.075 604.113 427.188 604.5C428.3 604.887 429.251 605.384 430.031 605.938C430.812 606.491 431.438 607.185 431.875 608.031C432.312 608.878 432.531 609.896 432.531 611.125C432.531 612.597 432.133 613.921 431.375 615.094C430.617 616.267 429.523 617.211 428.062 617.875C426.602 618.539 424.847 618.844 422.844 618.844C420.442 618.844 418.467 618.408 416.906 617.5C415.799 616.847 414.91 615.965 414.219 614.875C413.527 613.785 413.188 612.717 413.188 611.688C413.188 611.09 413.397 610.582 413.812 610.156C414.228 609.73 414.733 609.531 415.375 609.531C415.895 609.531 416.359 609.699 416.719 610.031C417.078 610.363 417.37 610.847 417.625 611.5C417.935 612.275 418.265 612.917 418.625 613.438C418.985 613.958 419.503 614.381 420.156 614.719C420.809 615.056 421.656 615.25 422.719 615.25C424.18 615.25 425.368 614.899 426.281 614.219C427.194 613.538 427.656 612.674 427.656 611.656C427.656 610.848 427.399 610.191 426.906 609.688C426.414 609.184 425.78 608.828 425 608.562C424.22 608.297 423.181 607.986 421.875 607.688C420.126 607.278 418.679 606.798 417.5 606.25C416.321 605.702 415.379 604.978 414.688 604.031C413.996 603.085 413.656 601.906 413.656 600.5C413.656 599.161 414.02 597.978 414.75 596.938C415.48 595.897 416.523 595.09 417.906 594.531C419.29 593.972 420.911 593.688 422.781 593.688ZM462.031 593.688C462.773 593.688 463.353 593.945 463.812 594.438C464.272 594.93 464.5 595.68 464.5 596.688L464.5 615.844C464.5 616.851 464.272 617.627 463.812 618.125C463.353 618.623 462.773 618.844 462.031 618.844C461.323 618.844 460.741 618.597 460.281 618.094C459.822 617.59 459.594 616.84 459.594 615.844L459.594 596.688C459.594 595.691 459.796 594.936 460.25 594.438C460.704 593.939 461.312 593.688 462.031 593.688ZM439.812 594.094L446.156 594.094C448.027 594.094 449.462 594.243 450.469 594.531C451.465 594.808 452.338 595.264 453.062 595.906C453.787 596.548 454.311 597.352 454.688 598.281C455.064 599.211 455.25 600.244 455.25 601.406C455.25 603.885 454.496 605.753 452.969 607.031C451.441 608.31 449.178 608.969 446.156 608.969L441.625 608.969L441.625 615.844C441.625 616.829 441.402 617.585 440.938 618.094C440.473 618.603 439.896 618.844 439.188 618.844C438.446 618.844 437.829 618.597 437.375 618.094C436.921 617.59 436.688 616.849 436.688 615.875L436.688 597.125C436.688 596.04 436.939 595.277 437.438 594.812C437.936 594.348 438.728 594.094 439.812 594.094ZM441.625 597.812L441.625 605.25L444.969 605.25C446.131 605.25 447.095 605.118 447.875 604.875C448.655 604.632 449.247 604.241 449.656 603.688C450.066 603.134 450.281 602.396 450.281 601.5C450.281 600.426 449.943 599.55 449.312 598.875C448.604 598.156 447.171 597.812 444.969 597.812L441.625 597.812Z" fill="#ffffff" fill-rule="nonzero" opacity="1" stroke="none"/>
</g>
</g>
</svg>
