<?xml version="1.0" encoding="UTF-8" standalone="no"?>
<!DOCTYPE svg PUBLIC "-//W3C//DTD SVG 1.1//EN" "http://www.w3.org/Graphics/SVG/1.1/DTD/svg11.dtd">
<svg width="232px" height="190px"  stroke-miterlimit="10" style="fill-rule:nonzero;clip-rule:evenodd;stroke-linecap:round;stroke-linejoin:round;" version="1.1" viewBox="0 0 116 95" xml:space="preserve" xmlns="http://www.w3.org/2000/svg" xmlns:xlink="http://www.w3.org/1999/xlink">
<defs/>
<g id="microbit-illustration">
<g opacity="1">
<path d="M105.251 3.11172L9.25066 3.11172C5.95066 3.11172 3.25066 5.81172 3.25066 9.11172L3.25066 84.1117C3.25066 86.8117 4.97566 89.0617 7.37566 89.8117C7.97566 89.9617 8.57566 90.1117 9.25066 90.1117L105.251 90.1117C105.926 90.1117 106.526 90.0367 107.126 89.8117C109.526 89.0617 111.251 86.8117 111.251 84.1117L111.251 9.11172C111.251 5.81172 108.626 3.11172 105.251 3.11172ZM12.2507 79.1617C10.1507 79.1617 8.50066 77.5117 8.50066 75.4117C8.50066 73.3117 10.1507 71.6617 12.2507 71.6617C14.3507 71.6617 16.0007 73.3117 16.0007 75.4117C16.0007 77.5117 14.3507 79.1617 12.2507 79.1617ZM33.4757 79.1617C31.3757 79.1617 29.7257 77.5117 29.7257 75.4117C29.7257 73.3117 31.3757 71.6617 33.4757 71.6617C35.5757 71.6617 37.2257 73.3117 37.2257 75.4117C37.2257 77.5117 35.5007 79.1617 33.4757 79.1617ZM57.2507 79.1617C55.1507 79.1617 53.5007 77.5117 53.5007 75.4117C53.5007 73.3117 55.1507 71.6617 57.2507 71.6617C59.3507 71.6617 61.0007 73.3117 61.0007 75.4117C61.0007 77.5117 59.3507 79.1617 57.2507 79.1617ZM81.1007 79.1617C79.0007 79.1617 77.3507 77.5117 77.3507 75.4117C77.3507 73.3117 79.0007 71.6617 81.1007 71.6617C83.2007 71.6617 84.8507 73.3117 84.8507 75.4117C84.8507 77.5117 83.2007 79.1617 81.1007 79.1617ZM102.251 79.1617C100.151 79.1617 98.5007 77.5117 98.5007 75.4117C98.5007 73.3117 100.151 71.6617 102.251 71.6617C104.351 71.6617 106.001 73.3117 106.001 75.4117C106.001 77.5117 104.351 79.1617 102.251 79.1617Z" fill="#231f20" fill-rule="nonzero" opacity="0.1" stroke="#231f20" stroke-linecap="butt" stroke-linejoin="miter" stroke-width="6"/>
<path d="M9.25 3.125C5.95 3.125 3.25 5.825 3.25 9.125L3.25 84.125C3.25 86.825 4.975 89.0625 7.375 89.8125C7.71554 89.8976 8.08325 89.9423 8.4375 90C8.44992 89.9886 8.45725 89.981 8.46875 89.9688C8.47764 89.9599 8.49163 89.9469 8.5 89.9375C8.52092 89.9134 8.54472 89.9011 8.5625 89.875C8.56982 89.864 8.5557 89.8547 8.5625 89.8438C8.58499 89.8066 8.60931 89.7601 8.625 89.7188C8.89589 88.9484 9.63451 88.4063 10.5 88.4062L14 88.4062C14.7567 88.4062 15.4132 88.8157 15.75 89.4375C15.7981 89.5259 15.841 89.6225 15.875 89.7188C15.8907 89.7606 15.915 89.8061 15.9375 89.8438C15.9427 89.8521 15.9317 89.8667 15.9375 89.875C15.9558 89.9038 15.9775 89.9119 16 89.9375C16.0078 89.9469 16.0229 89.9599 16.0312 89.9688C16.0548 89.9939 16.0983 90.0098 16.125 90.0312C16.1318 90.0365 16.1177 90.0573 16.125 90.0625C16.16 90.0892 16.2108 90.1046 16.25 90.125L29.4688 90.125C29.5059 90.1057 29.529 90.0876 29.5625 90.0625C29.5703 90.0567 29.5859 90.0375 29.5938 90.0312C29.6199 90.0103 29.6332 89.9933 29.6562 89.9688C29.6651 89.9599 29.6791 89.9469 29.6875 89.9375C29.7084 89.9134 29.7322 89.9011 29.75 89.875C29.7573 89.864 29.7432 89.8547 29.75 89.8438C29.7725 89.8066 29.7968 89.7601 29.8125 89.7188C30.0834 88.9484 30.822 88.4063 31.6875 88.4062L35.1875 88.4062C35.9442 88.4062 36.6007 88.8157 36.9375 89.4375C36.9856 89.5259 37.0285 89.6225 37.0625 89.7188C37.0782 89.7606 37.1025 89.8061 37.125 89.8438C37.1302 89.8521 37.1505 89.8667 37.1562 89.875C37.1746 89.9038 37.165 89.9119 37.1875 89.9375C37.1953 89.9469 37.2104 89.9599 37.2188 89.9688C37.2423 89.9939 37.2858 90.0098 37.3125 90.0312C37.3193 90.0365 37.3052 90.0573 37.3125 90.0625C37.3475 90.0892 37.3983 90.1046 37.4375 90.125L53.2188 90.125C53.2559 90.1057 53.3103 90.0876 53.3438 90.0625C53.3516 90.0567 53.3671 90.0375 53.375 90.0312C53.4011 90.0103 53.4145 89.9933 53.4375 89.9688C53.4464 89.9599 53.4604 89.9469 53.4688 89.9375C53.4897 89.9134 53.5135 89.9011 53.5312 89.875C53.5386 89.864 53.5245 89.8547 53.5312 89.8438C53.5537 89.8066 53.5781 89.7601 53.5938 89.7188C53.8646 88.9484 54.6033 88.4063 55.4688 88.4062L58.9688 88.4062C59.7255 88.4062 60.382 88.8157 60.7188 89.4375C60.7669 89.5259 60.8098 89.6225 60.8438 89.7188C60.8594 89.7606 60.8838 89.8061 60.9062 89.8438C60.9115 89.8521 60.9005 89.8667 60.9062 89.875C60.9246 89.9038 60.9463 89.9119 60.9688 89.9375C60.9766 89.9469 60.9916 89.9599 61 89.9688C61.0235 89.9939 61.0358 90.0098 61.0625 90.0312C61.0693 90.0365 61.0864 90.0573 61.0938 90.0625C61.1288 90.0892 61.1795 90.1046 61.2188 90.125L77.0938 90.125C77.1309 90.1057 77.154 90.0876 77.1875 90.0625C77.1953 90.0567 77.2109 90.0375 77.2188 90.0312C77.2449 90.0103 77.2582 89.9933 77.2812 89.9688C77.2901 89.9599 77.3041 89.9469 77.3125 89.9375C77.3334 89.9134 77.3572 89.9011 77.375 89.875C77.3823 89.864 77.3682 89.8547 77.375 89.8438C77.3975 89.8066 77.4218 89.7601 77.4375 89.7188C77.7084 88.9484 78.447 88.4063 79.3125 88.4062L82.8125 88.4062C83.5692 88.4062 84.2257 88.8157 84.5625 89.4375C84.6106 89.5259 84.6535 89.6225 84.6875 89.7188C84.7032 89.7606 84.7275 89.8061 84.75 89.8438C84.7552 89.8521 84.7755 89.8667 84.7812 89.875C84.7996 89.9038 84.79 89.9119 84.8125 89.9375C84.8203 89.9469 84.8354 89.9599 84.8438 89.9688C84.8673 89.9939 84.9108 90.0098 84.9375 90.0312C84.9443 90.0365 84.9302 90.0573 84.9375 90.0625C84.9725 90.0892 85.0233 90.1046 85.0625 90.125L98.25 90.125C98.2871 90.1057 98.3415 90.0876 98.375 90.0625C98.3828 90.0567 98.3984 90.0375 98.4062 90.0312C98.4324 90.0103 98.4457 89.9933 98.4688 89.9688C98.4776 89.9599 98.4916 89.9469 98.5 89.9375C98.5209 89.9134 98.5447 89.9011 98.5625 89.875C98.5698 89.864 98.5557 89.8547 98.5625 89.8438C98.585 89.8066 98.6093 89.7601 98.625 89.7188C98.8959 88.9484 99.6345 88.4063 100.5 88.4062L104 88.4062C104.757 88.4062 105.413 88.8157 105.75 89.4375C105.798 89.5259 105.841 89.6225 105.875 89.7188C105.891 89.7606 105.915 89.8061 105.938 89.8438C105.943 89.8521 105.932 89.8667 105.938 89.875C105.956 89.9038 105.978 89.9119 106 89.9375C106.008 89.9469 106.023 89.9599 106.031 89.9688C106.04 89.9784 106.053 89.9908 106.062 90C106.417 89.9552 106.784 89.9402 107.125 89.8125C109.525 89.0625 111.25 86.825 111.25 84.125L111.25 9.125C111.25 5.825 108.625 3.125 105.25 3.125L9.25 3.125ZM12.25 71.6562C14.35 71.6562 16 73.3063 16 75.4062C16 77.5062 14.35 79.1562 12.25 79.1562C10.15 79.1562 8.5 77.5062 8.5 75.4062C8.5 73.3063 10.15 71.6562 12.25 71.6562ZM33.4688 71.6562C35.5688 71.6562 37.2187 73.3063 37.2188 75.4062C37.2188 77.5062 35.4937 79.1562 33.4688 79.1562C31.3687 79.1562 29.7187 77.5062 29.7188 75.4062C29.7188 73.3063 31.3688 71.6562 33.4688 71.6562ZM57.25 71.6562C59.35 71.6562 61 73.3063 61 75.4062C61 77.5062 59.35 79.1562 57.25 79.1562C55.15 79.1562 53.5 77.5062 53.5 75.4062C53.5 73.3063 55.15 71.6562 57.25 71.6562ZM81.0938 71.6562C83.1937 71.6562 84.8438 73.3063 84.8438 75.4062C84.8438 77.5062 83.1938 79.1562 81.0938 79.1562C78.9938 79.1562 77.3438 77.5062 77.3438 75.4062C77.3438 73.3063 78.9937 71.6562 81.0938 71.6562ZM102.25 71.6562C104.35 71.6562 106 73.3063 106 75.4062C106 77.5062 104.35 79.1562 102.25 79.1562C100.15 79.1562 98.5 77.5062 98.5 75.4062C98.5 73.3063 100.15 71.6562 102.25 71.6562Z" fill="#414757" fill-rule="nonzero" opacity="1" stroke="none"/>
<path d="M3.25066 30.1117L3.25066 9.11172C3.25066 5.81172 5.95066 3.11172 9.25066 3.11172L30.2507 3.11172L3.25066 30.1117Z" fill="#ffcc00" fill-rule="nonzero" opacity="1" stroke="none"/>
<path d="M30.2507 15.1117L30.2507 3.11172L42.2507 3.11172L30.2507 15.1117Z" fill="#ffcc00" fill-rule="nonzero" opacity="1" stroke="none"/>
<path d="M42.2507 12.1117L42.2507 3.11172L51.2507 3.11172L42.2507 12.1117Z" fill="#ffcc00" fill-rule="nonzero" opacity="1" stroke="none"/>
<path d="M97.7507 33.1117L97.7507 24.1117L106.751 24.1117L97.7507 33.1117Z" fill="#ffcc00" fill-rule="nonzero" opacity="1" stroke="#ffcc00" stroke-linecap="round" stroke-linejoin="round" stroke-width="0.75"/>
<path d="M16.7507 54.1117L16.7507 63.1117L7.75066 63.1117L16.7507 54.1117Z" fill="#ffcc00" fill-rule="nonzero" opacity="1" stroke="#ffcc00" stroke-linecap="round" stroke-linejoin="round" stroke-width="0.75"/>
<path d="M6.25066 45.1117C5.42566 45.1117 4.75066 44.4367 4.75066 43.6117C4.75066 42.7867 5.42566 42.1117 6.25066 42.1117C7.07566 42.1117 7.75066 42.7867 7.75066 43.6117C7.75066 44.4367 7.07566 45.1117 6.25066 45.1117Z" fill="#ffffff" fill-rule="nonzero" opacity="1" stroke="none"/>
<path d="M108.251 45.1117C107.426 45.1117 106.751 44.4367 106.751 43.6117C106.751 42.7867 107.426 42.1117 108.251 42.1117C109.076 42.1117 109.751 42.7867 109.751 43.6117C109.751 44.4367 109.076 45.1117 108.251 45.1117Z" fill="#ffffff" fill-rule="nonzero" opacity="1" stroke="none"/>
<g opacity="1">
<path d="M61.0757 18.4867C61.6757 18.4867 62.1257 18.0367 62.1257 17.4367C62.1257 16.8367 61.6757 16.3867 61.0757 16.3867C60.4757 16.3867 60.0257 16.8367 60.0257 17.4367C60.0257 18.0367 60.4757 18.4867 61.0757 18.4867" fill="#ffcc00" fill-rule="nonzero" opacity="1" stroke="none"/>
<path d="M53.4257 16.3867C52.8257 16.3867 52.3757 16.8367 52.3757 17.4367C52.3757 18.0367 52.8257 18.4867 53.4257 18.4867C54.0257 18.4867 54.4757 18.0367 54.4757 17.4367C54.4757 16.8367 54.0257 16.3867 53.4257 16.3867" fill="#ffcc00" fill-rule="nonzero" opacity="1" stroke="none"/>
<path d="M53.4257 14.3617C51.7007 14.3617 50.3507 15.7117 50.3507 17.4367C50.3507 19.1617 51.7007 20.5117 53.4257 20.5117L61.1507 20.5117C62.8757 20.5117 64.2257 19.1617 64.2257 17.4367C64.2257 15.7117 62.8757 14.3617 61.1507 14.3617L53.4257 14.3617M61.1507 22.6117L53.4257 22.6117C50.5757 22.6117 48.2507 20.2867 48.2507 17.4367C48.2507 14.5867 50.5757 12.2617 53.4257 12.2617L61.1507 12.2617C64.0007 12.2617 66.3257 14.5867 66.3257 17.4367C66.2507 20.2867 64.0007 22.6117 61.1507 22.6117" fill="#ffcc00" fill-rule="nonzero" opacity="1" stroke="none"/>
</g>
<g opacity="1">
<path d="M22.7507 36.1117L10.7507 36.1117C9.92566 36.1117 9.25066 36.7867 9.25066 37.6117L9.25066 49.6117C9.25066 50.4367 9.92566 51.1117 10.7507 51.1117L22.7507 51.1117C23.5757 51.1117 24.2507 50.4367 24.2507 49.6117L24.2507 37.6117C24.2507 36.7867 23.5757 36.1117 22.7507 36.1117Z" fill="#231f20" fill-rule="nonzero" opacity="0.25" stroke="#231f20" stroke-linecap="round" stroke-linejoin="round" stroke-width="3"/>
<path d="M22.7507 36.1117L10.7507 36.1117C9.92566 36.1117 9.25066 36.7867 9.25066 37.6117L9.25066 49.6117C9.25066 50.4367 9.92566 51.1117 10.7507 51.1117L22.7507 51.1117C23.5757 51.1117 24.2507 50.4367 24.2507 49.6117L24.2507 37.6117C24.2507 36.7867 23.5757 36.1117 22.7507 36.1117Z" fill="#e6e7e8" fill-rule="nonzero" opacity="1" stroke="#7c87a5" stroke-linecap="round" stroke-linejoin="round" stroke-width="0.75"/>
<path d="M13.7507 43.6117C13.7507 41.9549 15.0938 40.6117 16.7507 40.6117C18.4075 40.6117 19.7507 41.9549 19.7507 43.6117C19.7507 45.2686 18.4075 46.6117 16.7507 46.6117C15.0938 46.6117 13.7507 45.2686 13.7507 43.6117Z" fill="#231f20" fill-rule="nonzero" opacity="0.1" stroke="#231f20" stroke-linecap="butt" stroke-linejoin="miter" stroke-width="2.25"/>
<path d="M13.7507 43.6117C13.7507 41.9549 15.0938 40.6117 16.7507 40.6117C18.4075 40.6117 19.7507 41.9549 19.7507 43.6117C19.7507 45.2686 18.4075 46.6117 16.7507 46.6117C15.0938 46.6117 13.7507 45.2686 13.7507 43.6117Z" fill="#414757" fill-rule="nonzero" opacity="1" stroke="#414757" stroke-linecap="butt" stroke-linejoin="miter" stroke-width="0.75"/>
</g>
<g opacity="1">
<path d="M103.751 36.1117L91.7507 36.1117C90.9257 36.1117 90.2507 36.7867 90.2507 37.6117L90.2507 49.6117C90.2507 50.4367 90.9257 51.1117 91.7507 51.1117L103.751 51.1117C104.576 51.1117 105.251 50.4367 105.251 49.6117L105.251 37.6117C105.251 36.7867 104.576 36.1117 103.751 36.1117Z" fill="#231f20" fill-rule="nonzero" opacity="0.25" stroke="#231f20" stroke-linecap="round" stroke-linejoin="round" stroke-width="3"/>
<path d="M103.751 36.1117L91.7507 36.1117C90.9257 36.1117 90.2507 36.7867 90.2507 37.6117L90.2507 49.6117C90.2507 50.4367 90.9257 51.1117 91.7507 51.1117L103.751 51.1117C104.576 51.1117 105.251 50.4367 105.251 49.6117L105.251 37.6117C105.251 36.7867 104.576 36.1117 103.751 36.1117Z" fill="#e6e7e8" fill-rule="nonzero" opacity="1" stroke="#7c87a5" stroke-linecap="round" stroke-linejoin="round" stroke-width="0.75"/>
<path d="M94.7507 43.6117C94.7507 41.9549 96.0938 40.6117 97.7507 40.6117C99.4075 40.6117 100.751 41.9549 100.751 43.6117C100.751 45.2686 99.4075 46.6117 97.7507 46.6117C96.0938 46.6117 94.7507 45.2686 94.7507 43.6117Z" fill="#231f20" fill-rule="nonzero" opacity="0.1" stroke="#231f20" stroke-linecap="butt" stroke-linejoin="miter" stroke-width="2.25"/>
<path d="M94.7507 43.6117C94.7507 41.9549 96.0938 40.6117 97.7507 40.6117C99.4075 40.6117 100.751 41.9549 100.751 43.6117C100.751 45.2686 99.4075 46.6117 97.7507 46.6117C96.0938 46.6117 94.7507 45.2686 94.7507 43.6117Z" fill="#414757" fill-rule="nonzero" opacity="1" stroke="#414757" stroke-linecap="butt" stroke-linejoin="miter" stroke-width="0.75"/>
</g>
<g opacity="1">
<g opacity="1">
<path d="M40.6007 30.8617L39.4007 30.8617C39.3257 30.8617 39.2507 30.7867 39.2507 30.7117L39.2507 29.5117C39.2507 29.4367 39.3257 29.3617 39.4007 29.3617L40.6007 29.3617C40.6757 29.3617 40.7507 29.4367 40.7507 29.5117L40.7507 30.7117C40.7507 30.7867 40.7507 30.8617 40.6007 30.8617Z" fill="#e6e7e8" fill-rule="nonzero" opacity="0.5" stroke="none"/>
<path d="M40.6007 33.1117L39.4007 33.1117C39.3257 33.1117 39.2507 33.0367 39.2507 32.9617L39.2507 31.7617C39.2507 31.6867 39.3257 31.6117 39.4007 31.6117L40.6007 31.6117C40.6757 31.6117 40.7507 31.6867 40.7507 31.7617L40.7507 32.9617C40.7507 33.0367 40.7507 33.1117 40.6007 33.1117Z" fill="#231f20" fill-rule="nonzero" opacity="0.25" stroke="none"/>
<path d="M40.6007 32.3617L39.4007 32.3617C39.3257 32.3617 39.2507 32.2867 39.2507 32.2117L39.2507 30.2617C39.2507 30.1867 39.3257 30.1117 39.4007 30.1117L40.6007 30.1117C40.6757 30.1117 40.7507 30.1867 40.7507 30.2617L40.7507 32.2117C40.7507 32.2867 40.7507 32.3617 40.6007 32.3617Z" fill="#e6e7e8" fill-rule="nonzero" opacity="1" stroke="none"/>
</g>
<g opacity="1">
<path d="M49.2257 30.8617L48.0257 30.8617C47.9507 30.8617 47.8757 30.7867 47.8757 30.7117L47.8757 29.5117C47.8757 29.4367 47.9507 29.3617 48.0257 29.3617L49.2257 29.3617C49.3007 29.3617 49.3757 29.4367 49.3757 29.5117L49.3757 30.7117C49.3757 30.7867 49.3757 30.8617 49.2257 30.8617Z" fill="#e6e7e8" fill-rule="nonzero" opacity="0.5" stroke="none"/>
<path d="M49.2257 33.1117L48.0257 33.1117C47.9507 33.1117 47.8757 33.0367 47.8757 32.9617L47.8757 31.7617C47.8757 31.6867 47.9507 31.6117 48.0257 31.6117L49.2257 31.6117C49.3007 31.6117 49.3757 31.6867 49.3757 31.7617L49.3757 32.9617C49.3757 33.0367 49.3757 33.1117 49.2257 33.1117Z" fill="#231f20" fill-rule="nonzero" opacity="0.25" stroke="none"/>
<path d="M49.2257 32.3617L48.0257 32.3617C47.9507 32.3617 47.8757 32.2867 47.8757 32.2117L47.8757 30.2617C47.8757 30.1867 47.9507 30.1117 48.0257 30.1117L49.2257 30.1117C49.3007 30.1117 49.3757 30.1867 49.3757 30.2617L49.3757 32.2117C49.3757 32.2867 49.3757 32.3617 49.2257 32.3617Z" fill="#e6e7e8" fill-rule="nonzero" opacity="1" stroke="none"/>
</g>
<g opacity="1">
<path d="M57.8507 30.8617L56.6507 30.8617C56.5757 30.8617 56.5007 30.7867 56.5007 30.7117L56.5007 29.5117C56.5007 29.4367 56.5757 29.3617 56.6507 29.3617L57.8507 29.3617C57.9257 29.3617 58.0007 29.4367 58.0007 29.5117L58.0007 30.7117C58.0007 30.7867 58.0007 30.8617 57.8507 30.8617Z" fill="#e6e7e8" fill-rule="nonzero" opacity="0.5" stroke="none"/>
<path d="M57.8507 33.1117L56.6507 33.1117C56.5757 33.1117 56.5007 33.0367 56.5007 32.9617L56.5007 31.7617C56.5007 31.6867 56.5757 31.6117 56.6507 31.6117L57.8507 31.6117C57.9257 31.6117 58.0007 31.6867 58.0007 31.7617L58.0007 32.9617C58.0007 33.0367 58.0007 33.1117 57.8507 33.1117Z" fill="#231f20" fill-rule="nonzero" opacity="0.25" stroke="none"/>
<path d="M57.8507 32.3617L56.6507 32.3617C56.5757 32.3617 56.5007 32.2867 56.5007 32.2117L56.5007 30.2617C56.5007 30.1867 56.5757 30.1117 56.6507 30.1117L57.8507 30.1117C57.9257 30.1117 58.0007 30.1867 58.0007 30.2617L58.0007 32.2117C58.0007 32.2867 58.0007 32.3617 57.8507 32.3617Z" fill="#e6e7e8" fill-rule="nonzero" opacity="1" stroke="none"/>
</g>
<g opacity="1">
<path d="M66.4757 30.8617L65.2757 30.8617C65.2007 30.8617 65.1257 30.7867 65.1257 30.7117L65.1257 29.5117C65.1257 29.4367 65.2007 29.3617 65.2757 29.3617L66.4757 29.3617C66.5507 29.3617 66.6257 29.4367 66.6257 29.5117L66.6257 30.7117C66.6257 30.7867 66.6257 30.8617 66.4757 30.8617Z" fill="#e6e7e8" fill-rule="nonzero" opacity="0.5" stroke="none"/>
<path d="M66.4757 33.1117L65.2757 33.1117C65.2007 33.1117 65.1257 33.0367 65.1257 32.9617L65.1257 31.7617C65.1257 31.6867 65.2007 31.6117 65.2757 31.6117L66.4757 31.6117C66.5507 31.6117 66.6257 31.6867 66.6257 31.7617L66.6257 32.9617C66.6257 33.0367 66.6257 33.1117 66.4757 33.1117Z" fill="#231f20" fill-rule="nonzero" opacity="0.25" stroke="none"/>
<path d="M66.4757 32.3617L65.2757 32.3617C65.2007 32.3617 65.1257 32.2867 65.1257 32.2117L65.1257 30.2617C65.1257 30.1867 65.2007 30.1117 65.2757 30.1117L66.4757 30.1117C66.5507 30.1117 66.6257 30.1867 66.6257 30.2617L66.6257 32.2117C66.6257 32.2867 66.6257 32.3617 66.4757 32.3617Z" fill="#e6e7e8" fill-rule="nonzero" opacity="1" stroke="none"/>
</g>
<g opacity="1">
<path d="M75.1007 30.8617L73.9007 30.8617C73.8257 30.8617 73.7507 30.7867 73.7507 30.7117L73.7507 29.5117C73.7507 29.4367 73.8257 29.3617 73.9007 29.3617L75.1007 29.3617C75.1757 29.3617 75.2507 29.4367 75.2507 29.5117L75.2507 30.7117C75.2507 30.7867 75.2507 30.8617 75.1007 30.8617Z" fill="#e6e7e8" fill-rule="nonzero" opacity="0.5" stroke="none"/>
<path d="M75.1007 33.1117L73.9007 33.1117C73.8257 33.1117 73.7507 33.0367 73.7507 32.9617L73.7507 31.7617C73.7507 31.6867 73.8257 31.6117 73.9007 31.6117L75.1007 31.6117C75.1757 31.6117 75.2507 31.6867 75.2507 31.7617L75.2507 32.9617C75.2507 33.0367 75.2507 33.1117 75.1007 33.1117Z" fill="#231f20" fill-rule="nonzero" opacity="0.25" stroke="none"/>
<path d="M75.1007 32.3617L73.9007 32.3617C73.8257 32.3617 73.7507 32.2867 73.7507 32.2117L73.7507 30.2617C73.7507 30.1867 73.8257 30.1117 73.9007 30.1117L75.1007 30.1117C75.1757 30.1117 75.2507 30.1867 75.2507 30.2617L75.2507 32.2117C75.2507 32.2867 75.2507 32.3617 75.1007 32.3617Z" fill="#e6e7e8" fill-rule="nonzero" opacity="1" stroke="none"/>
</g>
</g>
<g opacity="1">
<g opacity="1">
<path d="M40.6007 39.2617L39.4007 39.2617C39.3257 39.2617 39.2507 39.1867 39.2507 39.1117L39.2507 37.9117C39.2507 37.8367 39.3257 37.7617 39.4007 37.7617L40.6007 37.7617C40.6757 37.7617 40.7507 37.8367 40.7507 37.9117L40.7507 39.1117C40.7507 39.1867 40.7507 39.2617 40.6007 39.2617Z" fill="#e6e7e8" fill-rule="nonzero" opacity="0.5" stroke="none"/>
<path d="M40.6007 41.5117L39.4007 41.5117C39.3257 41.5117 39.2507 41.4367 39.2507 41.3617L39.2507 40.1617C39.2507 40.0867 39.3257 40.0117 39.4007 40.0117L40.6007 40.0117C40.6757 40.0117 40.7507 40.0867 40.7507 40.1617L40.7507 41.3617C40.7507 41.4367 40.7507 41.5117 40.6007 41.5117Z" fill="#231f20" fill-rule="nonzero" opacity="0.25" stroke="none"/>
<path d="M40.6007 40.7617L39.4007 40.7617C39.3257 40.7617 39.2507 40.6867 39.2507 40.6117L39.2507 38.6617C39.2507 38.5867 39.3257 38.5117 39.4007 38.5117L40.6007 38.5117C40.6757 38.5117 40.7507 38.5867 40.7507 38.6617L40.7507 40.6117C40.7507 40.6867 40.7507 40.7617 40.6007 40.7617Z" fill="#e6e7e8" fill-rule="nonzero" opacity="1" stroke="none"/>
</g>
<g opacity="1">
<path d="M49.2257 39.2617L48.0257 39.2617C47.9507 39.2617 47.8757 39.1867 47.8757 39.1117L47.8757 37.9117C47.8757 37.8367 47.9507 37.7617 48.0257 37.7617L49.2257 37.7617C49.3007 37.7617 49.3757 37.8367 49.3757 37.9117L49.3757 39.1117C49.3757 39.1867 49.3757 39.2617 49.2257 39.2617Z" fill="#e6e7e8" fill-rule="nonzero" opacity="0.5" stroke="none"/>
<path d="M49.2257 41.5117L48.0257 41.5117C47.9507 41.5117 47.8757 41.4367 47.8757 41.3617L47.8757 40.1617C47.8757 40.0867 47.9507 40.0117 48.0257 40.0117L49.2257 40.0117C49.3007 40.0117 49.3757 40.0867 49.3757 40.1617L49.3757 41.3617C49.3757 41.4367 49.3757 41.5117 49.2257 41.5117Z" fill="#231f20" fill-rule="nonzero" opacity="0.25" stroke="none"/>
<path d="M49.2257 40.7617L48.0257 40.7617C47.9507 40.7617 47.8757 40.6867 47.8757 40.6117L47.8757 38.6617C47.8757 38.5867 47.9507 38.5117 48.0257 38.5117L49.2257 38.5117C49.3007 38.5117 49.3757 38.5867 49.3757 38.6617L49.3757 40.6117C49.3757 40.6867 49.3757 40.7617 49.2257 40.7617Z" fill="#e6e7e8" fill-rule="nonzero" opacity="1" stroke="none"/>
</g>
<g opacity="1">
<path d="M57.8507 39.2617L56.6507 39.2617C56.5757 39.2617 56.5007 39.1867 56.5007 39.1117L56.5007 37.9117C56.5007 37.8367 56.5757 37.7617 56.6507 37.7617L57.8507 37.7617C57.9257 37.7617 58.0007 37.8367 58.0007 37.9117L58.0007 39.1117C58.0007 39.1867 58.0007 39.2617 57.8507 39.2617Z" fill="#e6e7e8" fill-rule="nonzero" opacity="0.5" stroke="none"/>
<path d="M57.8507 41.5117L56.6507 41.5117C56.5757 41.5117 56.5007 41.4367 56.5007 41.3617L56.5007 40.1617C56.5007 40.0867 56.5757 40.0117 56.6507 40.0117L57.8507 40.0117C57.9257 40.0117 58.0007 40.0867 58.0007 40.1617L58.0007 41.3617C58.0007 41.4367 58.0007 41.5117 57.8507 41.5117Z" fill="#231f20" fill-rule="nonzero" opacity="0.25" stroke="none"/>
<path d="M57.8507 40.7617L56.6507 40.7617C56.5757 40.7617 56.5007 40.6867 56.5007 40.6117L56.5007 38.6617C56.5007 38.5867 56.5757 38.5117 56.6507 38.5117L57.8507 38.5117C57.9257 38.5117 58.0007 38.5867 58.0007 38.6617L58.0007 40.6117C58.0007 40.6867 58.0007 40.7617 57.8507 40.7617Z" fill="#e6e7e8" fill-rule="nonzero" opacity="1" stroke="none"/>
</g>
<g opacity="1">
<path d="M66.4757 39.2617L65.2757 39.2617C65.2007 39.2617 65.1257 39.1867 65.1257 39.1117L65.1257 37.9117C65.1257 37.8367 65.2007 37.7617 65.2757 37.7617L66.4757 37.7617C66.5507 37.7617 66.6257 37.8367 66.6257 37.9117L66.6257 39.1117C66.6257 39.1867 66.6257 39.2617 66.4757 39.2617Z" fill="#e6e7e8" fill-rule="nonzero" opacity="0.5" stroke="none"/>
<path d="M66.4757 41.5117L65.2757 41.5117C65.2007 41.5117 65.1257 41.4367 65.1257 41.3617L65.1257 40.1617C65.1257 40.0867 65.2007 40.0117 65.2757 40.0117L66.4757 40.0117C66.5507 40.0117 66.6257 40.0867 66.6257 40.1617L66.6257 41.3617C66.6257 41.4367 66.6257 41.5117 66.4757 41.5117Z" fill="#231f20" fill-rule="nonzero" opacity="0.25" stroke="none"/>
<path d="M66.4757 40.7617L65.2757 40.7617C65.2007 40.7617 65.1257 40.6867 65.1257 40.6117L65.1257 38.6617C65.1257 38.5867 65.2007 38.5117 65.2757 38.5117L66.4757 38.5117C66.5507 38.5117 66.6257 38.5867 66.6257 38.6617L66.6257 40.6117C66.6257 40.6867 66.6257 40.7617 66.4757 40.7617Z" fill="#e6e7e8" fill-rule="nonzero" opacity="1" stroke="none"/>
</g>
<g opacity="1">
<path d="M75.1007 39.2617L73.9007 39.2617C73.8257 39.2617 73.7507 39.1867 73.7507 39.1117L73.7507 37.9117C73.7507 37.8367 73.8257 37.7617 73.9007 37.7617L75.1007 37.7617C75.1757 37.7617 75.2507 37.8367 75.2507 37.9117L75.2507 39.1117C75.2507 39.1867 75.2507 39.2617 75.1007 39.2617Z" fill="#e6e7e8" fill-rule="nonzero" opacity="0.5" stroke="none"/>
<path d="M75.1007 41.5117L73.9007 41.5117C73.8257 41.5117 73.7507 41.4367 73.7507 41.3617L73.7507 40.1617C73.7507 40.0867 73.8257 40.0117 73.9007 40.0117L75.1007 40.0117C75.1757 40.0117 75.2507 40.0867 75.2507 40.1617L75.2507 41.3617C75.2507 41.4367 75.2507 41.5117 75.1007 41.5117Z" fill="#231f20" fill-rule="nonzero" opacity="0.25" stroke="none"/>
<path d="M75.1007 40.7617L73.9007 40.7617C73.8257 40.7617 73.7507 40.6867 73.7507 40.6117L73.7507 38.6617C73.7507 38.5867 73.8257 38.5117 73.9007 38.5117L75.1007 38.5117C75.1757 38.5117 75.2507 38.5867 75.2507 38.6617L75.2507 40.6117C75.2507 40.6867 75.2507 40.7617 75.1007 40.7617Z" fill="#e6e7e8" fill-rule="nonzero" opacity="1" stroke="none"/>
</g>
</g>
<g opacity="1">
<g opacity="1">
<path d="M40.6007 47.7367L39.4007 47.7367C39.3257 47.7367 39.2507 47.6617 39.2507 47.5867L39.2507 46.3867C39.2507 46.3117 39.3257 46.2367 39.4007 46.2367L40.6007 46.2367C40.6757 46.2367 40.7507 46.3117 40.7507 46.3867L40.7507 47.5867C40.7507 47.6617 40.7507 47.7367 40.6007 47.7367Z" fill="#e6e7e8" fill-rule="nonzero" opacity="0.5" stroke="none"/>
<path d="M40.6007 49.9867L39.4007 49.9867C39.3257 49.9867 39.2507 49.9117 39.2507 49.8367L39.2507 48.6367C39.2507 48.5617 39.3257 48.4867 39.4007 48.4867L40.6007 48.4867C40.6757 48.4867 40.7507 48.5617 40.7507 48.6367L40.7507 49.8367C40.7507 49.9117 40.7507 49.9867 40.6007 49.9867Z" fill="#231f20" fill-rule="nonzero" opacity="0.25" stroke="none"/>
<path d="M40.6007 49.2367L39.4007 49.2367C39.3257 49.2367 39.2507 49.1617 39.2507 49.0867L39.2507 47.1367C39.2507 47.0617 39.3257 46.9867 39.4007 46.9867L40.6007 46.9867C40.6757 46.9867 40.7507 47.0617 40.7507 47.1367L40.7507 49.0867C40.7507 49.1617 40.7507 49.2367 40.6007 49.2367Z" fill="#e6e7e8" fill-rule="nonzero" opacity="1" stroke="none"/>
</g>
<g opacity="1">
<path d="M49.2257 47.7367L48.0257 47.7367C47.9507 47.7367 47.8757 47.6617 47.8757 47.5867L47.8757 46.3867C47.8757 46.3117 47.9507 46.2367 48.0257 46.2367L49.2257 46.2367C49.3007 46.2367 49.3757 46.3117 49.3757 46.3867L49.3757 47.5867C49.3757 47.6617 49.3757 47.7367 49.2257 47.7367Z" fill="#e6e7e8" fill-rule="nonzero" opacity="0.5" stroke="none"/>
<path d="M49.2257 49.9867L48.0257 49.9867C47.9507 49.9867 47.8757 49.9117 47.8757 49.8367L47.8757 48.6367C47.8757 48.5617 47.9507 48.4867 48.0257 48.4867L49.2257 48.4867C49.3007 48.4867 49.3757 48.5617 49.3757 48.6367L49.3757 49.8367C49.3757 49.9117 49.3757 49.9867 49.2257 49.9867Z" fill="#231f20" fill-rule="nonzero" opacity="0.25" stroke="none"/>
<path d="M49.2257 49.2367L48.0257 49.2367C47.9507 49.2367 47.8757 49.1617 47.8757 49.0867L47.8757 47.1367C47.8757 47.0617 47.9507 46.9867 48.0257 46.9867L49.2257 46.9867C49.3007 46.9867 49.3757 47.0617 49.3757 47.1367L49.3757 49.0867C49.3757 49.1617 49.3757 49.2367 49.2257 49.2367Z" fill="#e6e7e8" fill-rule="nonzero" opacity="1" stroke="none"/>
</g>
<g opacity="1">
<path d="M57.8507 47.7367L56.6507 47.7367C56.5757 47.7367 56.5007 47.6617 56.5007 47.5867L56.5007 46.3867C56.5007 46.3117 56.5757 46.2367 56.6507 46.2367L57.8507 46.2367C57.9257 46.2367 58.0007 46.3117 58.0007 46.3867L58.0007 47.5867C58.0007 47.6617 58.0007 47.7367 57.8507 47.7367Z" fill="#e6e7e8" fill-rule="nonzero" opacity="0.5" stroke="none"/>
<path d="M57.8507 49.9867L56.6507 49.9867C56.5757 49.9867 56.5007 49.9117 56.5007 49.8367L56.5007 48.6367C56.5007 48.5617 56.5757 48.4867 56.6507 48.4867L57.8507 48.4867C57.9257 48.4867 58.0007 48.5617 58.0007 48.6367L58.0007 49.8367C58.0007 49.9117 58.0007 49.9867 57.8507 49.9867Z" fill="#231f20" fill-rule="nonzero" opacity="0.25" stroke="none"/>
<path d="M57.8507 49.2367L56.6507 49.2367C56.5757 49.2367 56.5007 49.1617 56.5007 49.0867L56.5007 47.1367C56.5007 47.0617 56.5757 46.9867 56.6507 46.9867L57.8507 46.9867C57.9257 46.9867 58.0007 47.0617 58.0007 47.1367L58.0007 49.0867C58.0007 49.1617 58.0007 49.2367 57.8507 49.2367Z" fill="#e6e7e8" fill-rule="nonzero" opacity="1" stroke="none"/>
</g>
<g opacity="1">
<path d="M66.4757 47.7367L65.2757 47.7367C65.2007 47.7367 65.1257 47.6617 65.1257 47.5867L65.1257 46.3867C65.1257 46.3117 65.2007 46.2367 65.2757 46.2367L66.4757 46.2367C66.5507 46.2367 66.6257 46.3117 66.6257 46.3867L66.6257 47.5867C66.6257 47.6617 66.6257 47.7367 66.4757 47.7367Z" fill="#e6e7e8" fill-rule="nonzero" opacity="0.5" stroke="none"/>
<path d="M66.4757 49.9867L65.2757 49.9867C65.2007 49.9867 65.1257 49.9117 65.1257 49.8367L65.1257 48.6367C65.1257 48.5617 65.2007 48.4867 65.2757 48.4867L66.4757 48.4867C66.5507 48.4867 66.6257 48.5617 66.6257 48.6367L66.6257 49.8367C66.6257 49.9117 66.6257 49.9867 66.4757 49.9867Z" fill="#231f20" fill-rule="nonzero" opacity="0.25" stroke="none"/>
<path d="M66.4757 49.2367L65.2757 49.2367C65.2007 49.2367 65.1257 49.1617 65.1257 49.0867L65.1257 47.1367C65.1257 47.0617 65.2007 46.9867 65.2757 46.9867L66.4757 46.9867C66.5507 46.9867 66.6257 47.0617 66.6257 47.1367L66.6257 49.0867C66.6257 49.1617 66.6257 49.2367 66.4757 49.2367Z" fill="#e6e7e8" fill-rule="nonzero" opacity="1" stroke="none"/>
</g>
<g opacity="1">
<path d="M75.1007 47.7367L73.9007 47.7367C73.8257 47.7367 73.7507 47.6617 73.7507 47.5867L73.7507 46.3867C73.7507 46.3117 73.8257 46.2367 73.9007 46.2367L75.1007 46.2367C75.1757 46.2367 75.2507 46.3117 75.2507 46.3867L75.2507 47.5867C75.2507 47.6617 75.2507 47.7367 75.1007 47.7367Z" fill="#e6e7e8" fill-rule="nonzero" opacity="0.5" stroke="none"/>
<path d="M75.1007 49.9867L73.9007 49.9867C73.8257 49.9867 73.7507 49.9117 73.7507 49.8367L73.7507 48.6367C73.7507 48.5617 73.8257 48.4867 73.9007 48.4867L75.1007 48.4867C75.1757 48.4867 75.2507 48.5617 75.2507 48.6367L75.2507 49.8367C75.2507 49.9117 75.2507 49.9867 75.1007 49.9867Z" fill="#231f20" fill-rule="nonzero" opacity="0.25" stroke="none"/>
<path d="M75.1007 49.2367L73.9007 49.2367C73.8257 49.2367 73.7507 49.1617 73.7507 49.0867L73.7507 47.1367C73.7507 47.0617 73.8257 46.9867 73.9007 46.9867L75.1007 46.9867C75.1757 46.9867 75.2507 47.0617 75.2507 47.1367L75.2507 49.0867C75.2507 49.1617 75.2507 49.2367 75.1007 49.2367Z" fill="#e6e7e8" fill-rule="nonzero" opacity="1" stroke="none"/>
</g>
</g>
<g opacity="1">
<g opacity="1">
<path d="M40.6007 56.1367L39.4007 56.1367C39.3257 56.1367 39.2507 56.0617 39.2507 55.9867L39.2507 54.7867C39.2507 54.7117 39.3257 54.6367 39.4007 54.6367L40.6007 54.6367C40.6757 54.6367 40.7507 54.7117 40.7507 54.7867L40.7507 55.9867C40.7507 56.0617 40.7507 56.1367 40.6007 56.1367Z" fill="#e6e7e8" fill-rule="nonzero" opacity="0.5" stroke="none"/>
<path d="M40.6007 58.3867L39.4007 58.3867C39.3257 58.3867 39.2507 58.3117 39.2507 58.2367L39.2507 57.0367C39.2507 56.9617 39.3257 56.8867 39.4007 56.8867L40.6007 56.8867C40.6757 56.8867 40.7507 56.9617 40.7507 57.0367L40.7507 58.2367C40.7507 58.3117 40.7507 58.3867 40.6007 58.3867Z" fill="#231f20" fill-rule="nonzero" opacity="0.25" stroke="none"/>
<path d="M40.6007 57.6367L39.4007 57.6367C39.3257 57.6367 39.2507 57.5617 39.2507 57.4867L39.2507 55.5367C39.2507 55.4617 39.3257 55.3867 39.4007 55.3867L40.6007 55.3867C40.6757 55.3867 40.7507 55.4617 40.7507 55.5367L40.7507 57.4867C40.7507 57.5617 40.7507 57.6367 40.6007 57.6367Z" fill="#e6e7e8" fill-rule="nonzero" opacity="1" stroke="none"/>
</g>
<g opacity="1">
<path d="M49.2257 56.1367L48.0257 56.1367C47.9507 56.1367 47.8757 56.0617 47.8757 55.9867L47.8757 54.7867C47.8757 54.7117 47.9507 54.6367 48.0257 54.6367L49.2257 54.6367C49.3007 54.6367 49.3757 54.7117 49.3757 54.7867L49.3757 55.9867C49.3757 56.0617 49.3757 56.1367 49.2257 56.1367Z" fill="#e6e7e8" fill-rule="nonzero" opacity="0.5" stroke="none"/>
<path d="M49.2257 58.3867L48.0257 58.3867C47.9507 58.3867 47.8757 58.3117 47.8757 58.2367L47.8757 57.0367C47.8757 56.9617 47.9507 56.8867 48.0257 56.8867L49.2257 56.8867C49.3007 56.8867 49.3757 56.9617 49.3757 57.0367L49.3757 58.2367C49.3757 58.3117 49.3757 58.3867 49.2257 58.3867Z" fill="#231f20" fill-rule="nonzero" opacity="0.25" stroke="none"/>
<path d="M49.2257 57.6367L48.0257 57.6367C47.9507 57.6367 47.8757 57.5617 47.8757 57.4867L47.8757 55.5367C47.8757 55.4617 47.9507 55.3867 48.0257 55.3867L49.2257 55.3867C49.3007 55.3867 49.3757 55.4617 49.3757 55.5367L49.3757 57.4867C49.3757 57.5617 49.3757 57.6367 49.2257 57.6367Z" fill="#e6e7e8" fill-rule="nonzero" opacity="1" stroke="none"/>
</g>
<g opacity="1">
<path d="M57.8507 56.1367L56.6507 56.1367C56.5757 56.1367 56.5007 56.0617 56.5007 55.9867L56.5007 54.7867C56.5007 54.7117 56.5757 54.6367 56.6507 54.6367L57.8507 54.6367C57.9257 54.6367 58.0007 54.7117 58.0007 54.7867L58.0007 55.9867C58.0007 56.0617 58.0007 56.1367 57.8507 56.1367Z" fill="#e6e7e8" fill-rule="nonzero" opacity="0.5" stroke="none"/>
<path d="M57.8507 58.3867L56.6507 58.3867C56.5757 58.3867 56.5007 58.3117 56.5007 58.2367L56.5007 57.0367C56.5007 56.9617 56.5757 56.8867 56.6507 56.8867L57.8507 56.8867C57.9257 56.8867 58.0007 56.9617 58.0007 57.0367L58.0007 58.2367C58.0007 58.3117 58.0007 58.3867 57.8507 58.3867Z" fill="#231f20" fill-rule="nonzero" opacity="0.25" stroke="none"/>
<path d="M57.8507 57.6367L56.6507 57.6367C56.5757 57.6367 56.5007 57.5617 56.5007 57.4867L56.5007 55.5367C56.5007 55.4617 56.5757 55.3867 56.6507 55.3867L57.8507 55.3867C57.9257 55.3867 58.0007 55.4617 58.0007 55.5367L58.0007 57.4867C58.0007 57.5617 58.0007 57.6367 57.8507 57.6367Z" fill="#e6e7e8" fill-rule="nonzero" opacity="1" stroke="none"/>
</g>
<g opacity="1">
<path d="M66.4757 56.1367L65.2757 56.1367C65.2007 56.1367 65.1257 56.0617 65.1257 55.9867L65.1257 54.7867C65.1257 54.7117 65.2007 54.6367 65.2757 54.6367L66.4757 54.6367C66.5507 54.6367 66.6257 54.7117 66.6257 54.7867L66.6257 55.9867C66.6257 56.0617 66.6257 56.1367 66.4757 56.1367Z" fill="#e6e7e8" fill-rule="nonzero" opacity="0.5" stroke="none"/>
<path d="M66.4757 58.3867L65.2757 58.3867C65.2007 58.3867 65.1257 58.3117 65.1257 58.2367L65.1257 57.0367C65.1257 56.9617 65.2007 56.8867 65.2757 56.8867L66.4757 56.8867C66.5507 56.8867 66.6257 56.9617 66.6257 57.0367L66.6257 58.2367C66.6257 58.3117 66.6257 58.3867 66.4757 58.3867Z" fill="#231f20" fill-rule="nonzero" opacity="0.25" stroke="none"/>
<path d="M66.4757 57.6367L65.2757 57.6367C65.2007 57.6367 65.1257 57.5617 65.1257 57.4867L65.1257 55.5367C65.1257 55.4617 65.2007 55.3867 65.2757 55.3867L66.4757 55.3867C66.5507 55.3867 66.6257 55.4617 66.6257 55.5367L66.6257 57.4867C66.6257 57.5617 66.6257 57.6367 66.4757 57.6367Z" fill="#e6e7e8" fill-rule="nonzero" opacity="1" stroke="none"/>
</g>
<g opacity="1">
<path d="M75.1007 56.1367L73.9007 56.1367C73.8257 56.1367 73.7507 56.0617 73.7507 55.9867L73.7507 54.7867C73.7507 54.7117 73.8257 54.6367 73.9007 54.6367L75.1007 54.6367C75.1757 54.6367 75.2507 54.7117 75.2507 54.7867L75.2507 55.9867C75.2507 56.0617 75.2507 56.1367 75.1007 56.1367Z" fill="#e6e7e8" fill-rule="nonzero" opacity="0.5" stroke="none"/>
<path d="M75.1007 58.3867L73.9007 58.3867C73.8257 58.3867 73.7507 58.3117 73.7507 58.2367L73.7507 57.0367C73.7507 56.9617 73.8257 56.8867 73.9007 56.8867L75.1007 56.8867C75.1757 56.8867 75.2507 56.9617 75.2507 57.0367L75.2507 58.2367C75.2507 58.3117 75.2507 58.3867 75.1007 58.3867Z" fill="#231f20" fill-rule="nonzero" opacity="0.25" stroke="none"/>
<path d="M75.1007 57.6367L73.9007 57.6367C73.8257 57.6367 73.7507 57.5617 73.7507 57.4867L73.7507 55.5367C73.7507 55.4617 73.8257 55.3867 73.9007 55.3867L75.1007 55.3867C75.1757 55.3867 75.2507 55.4617 75.2507 55.5367L75.2507 57.4867C75.2507 57.5617 75.2507 57.6367 75.1007 57.6367Z" fill="#e6e7e8" fill-rule="nonzero" opacity="1" stroke="none"/>
</g>
</g>
<g opacity="1">
<g opacity="1">
<path d="M40.6007 64.6117L39.4007 64.6117C39.3257 64.6117 39.2507 64.5367 39.2507 64.4617L39.2507 63.2617C39.2507 63.1867 39.3257 63.1117 39.4007 63.1117L40.6007 63.1117C40.6757 63.1117 40.7507 63.1867 40.7507 63.2617L40.7507 64.4617C40.7507 64.5367 40.7507 64.6117 40.6007 64.6117Z" fill="#e6e7e8" fill-rule="nonzero" opacity="0.5" stroke="none"/>
<path d="M40.6007 66.8617L39.4007 66.8617C39.3257 66.8617 39.2507 66.7867 39.2507 66.7117L39.2507 65.5117C39.2507 65.4367 39.3257 65.3617 39.4007 65.3617L40.6007 65.3617C40.6757 65.3617 40.7507 65.4367 40.7507 65.5117L40.7507 66.7117C40.7507 66.7867 40.7507 66.8617 40.6007 66.8617Z" fill="#231f20" fill-rule="nonzero" opacity="0.25" stroke="none"/>
<path d="M40.6007 66.1117L39.4007 66.1117C39.3257 66.1117 39.2507 66.0367 39.2507 65.9617L39.2507 64.0117C39.2507 63.9367 39.3257 63.8617 39.4007 63.8617L40.6007 63.8617C40.6757 63.8617 40.7507 63.9367 40.7507 64.0117L40.7507 65.9617C40.7507 66.0367 40.7507 66.1117 40.6007 66.1117Z" fill="#e6e7e8" fill-rule="nonzero" opacity="1" stroke="none"/>
</g>
<g opacity="1">
<path d="M49.2257 64.6117L48.0257 64.6117C47.9507 64.6117 47.8757 64.5367 47.8757 64.4617L47.8757 63.2617C47.8757 63.1867 47.9507 63.1117 48.0257 63.1117L49.2257 63.1117C49.3007 63.1117 49.3757 63.1867 49.3757 63.2617L49.3757 64.4617C49.3757 64.5367 49.3757 64.6117 49.2257 64.6117Z" fill="#e6e7e8" fill-rule="nonzero" opacity="0.5" stroke="none"/>
<path d="M49.2257 66.8617L48.0257 66.8617C47.9507 66.8617 47.8757 66.7867 47.8757 66.7117L47.8757 65.5117C47.8757 65.4367 47.9507 65.3617 48.0257 65.3617L49.2257 65.3617C49.3007 65.3617 49.3757 65.4367 49.3757 65.5117L49.3757 66.7117C49.3757 66.7867 49.3757 66.8617 49.2257 66.8617Z" fill="#231f20" fill-rule="nonzero" opacity="0.25" stroke="none"/>
<path d="M49.2257 66.1117L48.0257 66.1117C47.9507 66.1117 47.8757 66.0367 47.8757 65.9617L47.8757 64.0117C47.8757 63.9367 47.9507 63.8617 48.0257 63.8617L49.2257 63.8617C49.3007 63.8617 49.3757 63.9367 49.3757 64.0117L49.3757 65.9617C49.3757 66.0367 49.3757 66.1117 49.2257 66.1117Z" fill="#e6e7e8" fill-rule="nonzero" opacity="1" stroke="none"/>
</g>
<g opacity="1">
<path d="M57.8507 64.6117L56.6507 64.6117C56.5757 64.6117 56.5007 64.5367 56.5007 64.4617L56.5007 63.2617C56.5007 63.1867 56.5757 63.1117 56.6507 63.1117L57.8507 63.1117C57.9257 63.1117 58.0007 63.1867 58.0007 63.2617L58.0007 64.4617C58.0007 64.5367 58.0007 64.6117 57.8507 64.6117Z" fill="#e6e7e8" fill-rule="nonzero" opacity="0.5" stroke="none"/>
<path d="M57.8507 66.8617L56.6507 66.8617C56.5757 66.8617 56.5007 66.7867 56.5007 66.7117L56.5007 65.5117C56.5007 65.4367 56.5757 65.3617 56.6507 65.3617L57.8507 65.3617C57.9257 65.3617 58.0007 65.4367 58.0007 65.5117L58.0007 66.7117C58.0007 66.7867 58.0007 66.8617 57.8507 66.8617Z" fill="#231f20" fill-rule="nonzero" opacity="0.25" stroke="none"/>
<path d="M57.8507 66.1117L56.6507 66.1117C56.5757 66.1117 56.5007 66.0367 56.5007 65.9617L56.5007 64.0117C56.5007 63.9367 56.5757 63.8617 56.6507 63.8617L57.8507 63.8617C57.9257 63.8617 58.0007 63.9367 58.0007 64.0117L58.0007 65.9617C58.0007 66.0367 58.0007 66.1117 57.8507 66.1117Z" fill="#e6e7e8" fill-rule="nonzero" opacity="1" stroke="none"/>
</g>
<g opacity="1">
<path d="M66.4757 64.6117L65.2757 64.6117C65.2007 64.6117 65.1257 64.5367 65.1257 64.4617L65.1257 63.2617C65.1257 63.1867 65.2007 63.1117 65.2757 63.1117L66.4757 63.1117C66.5507 63.1117 66.6257 63.1867 66.6257 63.2617L66.6257 64.4617C66.6257 64.5367 66.6257 64.6117 66.4757 64.6117Z" fill="#e6e7e8" fill-rule="nonzero" opacity="0.5" stroke="none"/>
<path d="M66.4757 66.8617L65.2757 66.8617C65.2007 66.8617 65.1257 66.7867 65.1257 66.7117L65.1257 65.5117C65.1257 65.4367 65.2007 65.3617 65.2757 65.3617L66.4757 65.3617C66.5507 65.3617 66.6257 65.4367 66.6257 65.5117L66.6257 66.7117C66.6257 66.7867 66.6257 66.8617 66.4757 66.8617Z" fill="#231f20" fill-rule="nonzero" opacity="0.25" stroke="none"/>
<path d="M66.4757 66.1117L65.2757 66.1117C65.2007 66.1117 65.1257 66.0367 65.1257 65.9617L65.1257 64.0117C65.1257 63.9367 65.2007 63.8617 65.2757 63.8617L66.4757 63.8617C66.5507 63.8617 66.6257 63.9367 66.6257 64.0117L66.6257 65.9617C66.6257 66.0367 66.6257 66.1117 66.4757 66.1117Z" fill="#e6e7e8" fill-rule="nonzero" opacity="1" stroke="none"/>
</g>
<g opacity="1">
<path d="M75.1007 64.6117L73.9007 64.6117C73.8257 64.6117 73.7507 64.5367 73.7507 64.4617L73.7507 63.2617C73.7507 63.1867 73.8257 63.1117 73.9007 63.1117L75.1007 63.1117C75.1757 63.1117 75.2507 63.1867 75.2507 63.2617L75.2507 64.4617C75.2507 64.5367 75.2507 64.6117 75.1007 64.6117Z" fill="#e6e7e8" fill-rule="nonzero" opacity="0.5" stroke="none"/>
<path d="M75.1007 66.8617L73.9007 66.8617C73.8257 66.8617 73.7507 66.7867 73.7507 66.7117L73.7507 65.5117C73.7507 65.4367 73.8257 65.3617 73.9007 65.3617L75.1007 65.3617C75.1757 65.3617 75.2507 65.4367 75.2507 65.5117L75.2507 66.7117C75.2507 66.7867 75.2507 66.8617 75.1007 66.8617Z" fill="#231f20" fill-rule="nonzero" opacity="0.25" stroke="none"/>
<path d="M75.1007 66.1117L73.9007 66.1117C73.8257 66.1117 73.7507 66.0367 73.7507 65.9617L73.7507 64.0117C73.7507 63.9367 73.8257 63.8617 73.9007 63.8617L75.1007 63.8617C75.1757 63.8617 75.2507 63.9367 75.2507 64.0117L75.2507 65.9617C75.2507 66.0367 75.2507 66.1117 75.1007 66.1117Z" fill="#e6e7e8" fill-rule="nonzero" opacity="1" stroke="none"/>
</g>
</g>
<g opacity="1">
<path d="M6.55066 79.6117L6.55066 89.4367C5.87566 89.0617 5.27566 88.6117 4.82566 88.0867L4.82566 79.6117L6.55066 79.6117Z" fill="#ffbf00" fill-rule="nonzero" opacity="1" stroke="none"/>
<path d="M18.0257 79.6117L19.8257 79.6117L19.8257 79.6117L19.8257 90.0367L19.8257 90.0367L18.0257 90.0367L18.0257 90.0367L18.0257 79.6117L18.0257 79.6117Z" fill="#ffbf00" fill-rule="nonzero" opacity="1" stroke="none"/>
<path d="M20.6507 79.6117L22.4507 79.6117L22.4507 79.6117L22.4507 90.0367L22.4507 90.0367L20.6507 90.0367L20.6507 90.0367L20.6507 79.6117L20.6507 79.6117Z" fill="#ffbf00" fill-rule="nonzero" opacity="1" stroke="none"/>
<path d="M23.2757 79.6117L25.0757 79.6117L25.0757 79.6117L25.0757 90.0367L25.0757 90.0367L23.2757 90.0367L23.2757 90.0367L23.2757 79.6117L23.2757 79.6117Z" fill="#ffbf00" fill-rule="nonzero" opacity="1" stroke="none"/>
<path d="M25.9757 79.6117L27.7757 79.6117L27.7757 79.6117L27.7757 90.0367L27.7757 90.0367L25.9757 90.0367L25.9757 90.0367L25.9757 79.6117L25.9757 79.6117Z" fill="#ffbf00" fill-rule="nonzero" opacity="1" stroke="none"/>
<path d="M39.1757 79.6117L40.9757 79.6117L40.9757 79.6117L40.9757 90.0367L40.9757 90.0367L39.1757 90.0367L39.1757 90.0367L39.1757 79.6117L39.1757 79.6117Z" fill="#ffbf00" fill-rule="nonzero" opacity="1" stroke="none"/>
<path d="M41.8757 79.6117L43.6757 79.6117L43.6757 79.6117L43.6757 90.0367L43.6757 90.0367L41.8757 90.0367L41.8757 90.0367L41.8757 79.6117L41.8757 79.6117Z" fill="#ffbf00" fill-rule="nonzero" opacity="1" stroke="none"/>
<path d="M44.5007 79.6117L46.3007 79.6117L46.3007 79.6117L46.3007 90.0367L46.3007 90.0367L44.5007 90.0367L44.5007 90.0367L44.5007 79.6117L44.5007 79.6117Z" fill="#ffbf00" fill-rule="nonzero" opacity="1" stroke="none"/>
<path d="M47.1257 79.6117L48.9257 79.6117L48.9257 79.6117L48.9257 90.0367L48.9257 90.0367L47.1257 90.0367L47.1257 90.0367L47.1257 79.6117L47.1257 79.6117Z" fill="#ffbf00" fill-rule="nonzero" opacity="1" stroke="none"/>
<path d="M49.7507 79.6117L51.5507 79.6117L51.5507 79.6117L51.5507 90.0367L51.5507 90.0367L49.7507 90.0367L49.7507 90.0367L49.7507 79.6117L49.7507 79.6117Z" fill="#ffbf00" fill-rule="nonzero" opacity="1" stroke="none"/>
<path d="M63.0257 79.6117L64.8257 79.6117L64.8257 79.6117L64.8257 90.0367L64.8257 90.0367L63.0257 90.0367L63.0257 90.0367L63.0257 79.6117L63.0257 79.6117Z" fill="#ffbf00" fill-rule="nonzero" opacity="1" stroke="none"/>
<path d="M65.6507 79.6117L67.4507 79.6117L67.4507 79.6117L67.4507 90.0367L67.4507 90.0367L65.6507 90.0367L65.6507 90.0367L65.6507 79.6117L65.6507 79.6117Z" fill="#ffbf00" fill-rule="nonzero" opacity="1" stroke="none"/>
<path d="M68.2757 79.6117L70.0757 79.6117L70.0757 79.6117L70.0757 90.0367L70.0757 90.0367L68.2757 90.0367L68.2757 90.0367L68.2757 79.6117L68.2757 79.6117Z" fill="#ffbf00" fill-rule="nonzero" opacity="1" stroke="none"/>
<path d="M70.9757 79.6117L72.7757 79.6117L72.7757 79.6117L72.7757 90.0367L72.7757 90.0367L70.9757 90.0367L70.9757 90.0367L70.9757 79.6117L70.9757 79.6117Z" fill="#ffbf00" fill-rule="nonzero" opacity="1" stroke="none"/>
<path d="M73.6007 79.6117L75.4007 79.6117L75.4007 79.6117L75.4007 90.0367L75.4007 90.0367L73.6007 90.0367L73.6007 90.0367L73.6007 79.6117L73.6007 79.6117Z" fill="#ffbf00" fill-rule="nonzero" opacity="1" stroke="none"/>
<path d="M86.8757 79.6117L88.6757 79.6117L88.6757 79.6117L88.6757 90.0367L88.6757 90.0367L86.8757 90.0367L86.8757 90.0367L86.8757 79.6117L86.8757 79.6117Z" fill="#ffbf00" fill-rule="nonzero" opacity="1" stroke="none"/>
<path d="M89.5007 79.6117L91.3007 79.6117L91.3007 79.6117L91.3007 90.0367L91.3007 90.0367L89.5007 90.0367L89.5007 90.0367L89.5007 79.6117L89.5007 79.6117Z" fill="#ffbf00" fill-rule="nonzero" opacity="1" stroke="none"/>
<path d="M92.1257 79.6117L93.9257 79.6117L93.9257 79.6117L93.9257 90.0367L93.9257 90.0367L92.1257 90.0367L92.1257 90.0367L92.1257 79.6117L92.1257 79.6117Z" fill="#ffbf00" fill-rule="nonzero" opacity="1" stroke="none"/>
<path d="M94.7507 79.6117L96.5507 79.6117L96.5507 79.6117L96.5507 90.0367L96.5507 90.0367L94.7507 90.0367L94.7507 90.0367L94.7507 79.6117L94.7507 79.6117Z" fill="#ffbf00" fill-rule="nonzero" opacity="1" stroke="none"/>
<path d="M109.751 79.6117L109.751 88.0867C109.226 88.6867 108.701 89.1367 108.026 89.4367L108.026 79.6117L109.751 79.6117Z" fill="#ffbf00" fill-rule="nonzero" opacity="1" stroke="none"/>
</g>
<g opacity="1">
<path d="M12.25 70.625C9.55 70.625 7.375 72.8 7.375 75.5L7.375 89.8125L8.4375 90C8.44992 89.9886 8.45725 89.981 8.46875 89.9688C8.47764 89.9599 8.49163 89.9469 8.5 89.9375C8.52092 89.9134 8.54472 89.9011 8.5625 89.875C8.56982 89.864 8.5557 89.8547 8.5625 89.8438C8.58499 89.8066 8.60931 89.7601 8.625 89.7188C8.89589 88.9484 9.63451 88.4063 10.5 88.4062L14 88.4062C14.7567 88.4062 15.4132 88.8157 15.75 89.4375C15.7981 89.5259 15.841 89.6225 15.875 89.7188C15.8907 89.7606 15.915 89.8061 15.9375 89.8438C15.9427 89.8521 15.9317 89.8667 15.9375 89.875C15.9558 89.9038 15.9775 89.9119 16 89.9375C16.0078 89.9469 16.0229 89.9599 16.0312 89.9688C16.0548 89.9939 16.0983 90.0098 16.125 90.0312C16.1318 90.0365 16.1177 90.0573 16.125 90.0625C16.16 90.0892 16.2108 90.1046 16.25 90.125L17.125 90.125L17.125 75.5C17.125 74.15 16.5875 72.9312 15.6875 72.0312C14.7875 71.1313 13.6 70.625 12.25 70.625ZM12.25 71.6562C14.35 71.6562 16 73.3062 16 75.4062C16 77.5062 14.35 79.1563 12.25 79.1562C10.15 79.1562 8.5 77.5063 8.5 75.4062C8.5 73.3063 10.15 71.6562 12.25 71.6562Z" fill="#ffbf00" fill-rule="nonzero" opacity="1" stroke="none"/>
<path d="M33.4688 70.625C30.7687 70.625 28.5937 72.8 28.5938 75.5L28.5938 90.125L29.4375 90.125L29.4688 90.125C29.5059 90.1057 29.529 90.0876 29.5625 90.0625C29.5703 90.0567 29.5859 90.0375 29.5938 90.0312C29.6199 90.0103 29.6332 89.9933 29.6562 89.9688C29.6651 89.9599 29.6791 89.9469 29.6875 89.9375C29.7084 89.9134 29.7322 89.9011 29.75 89.875C29.7573 89.864 29.7432 89.8547 29.75 89.8438C29.7725 89.8066 29.7968 89.7601 29.8125 89.7188C30.0834 88.9484 30.822 88.4063 31.6875 88.4062L35.1875 88.4062C35.9442 88.4062 36.6007 88.8157 36.9375 89.4375C36.9856 89.5259 37.0285 89.6225 37.0625 89.7188C37.0782 89.7606 37.1025 89.8061 37.125 89.8438C37.1302 89.8521 37.1505 89.8667 37.1562 89.875C37.1746 89.9038 37.165 89.9119 37.1875 89.9375C37.1953 89.9469 37.2104 89.9599 37.2188 89.9688C37.2423 89.9939 37.2858 90.0098 37.3125 90.0312C37.3193 90.0365 37.3052 90.0573 37.3125 90.0625C37.3475 90.0892 37.3983 90.1046 37.4375 90.125L38.2812 90.125L38.2812 75.5C38.3563 74.15 37.7625 72.8562 36.9375 72.0312C36.0375 71.1313 34.8187 70.625 33.4688 70.625ZM33.4688 71.6562C35.5688 71.6562 37.2187 73.3062 37.2188 75.4062C37.2188 77.5062 35.4937 79.1563 33.4688 79.1562C31.3687 79.1562 29.7187 77.5063 29.7188 75.4062C29.7188 73.3063 31.3688 71.6562 33.4688 71.6562Z" fill="#ffbf00" fill-rule="nonzero" opacity="1" stroke="none"/>
<path d="M57.25 70.625C54.55 70.625 52.375 72.8 52.375 75.5L52.375 90.125L53.2188 90.125C53.2559 90.1057 53.3103 90.0876 53.3438 90.0625C53.3516 90.0567 53.3671 90.0375 53.375 90.0312C53.4011 90.0103 53.4145 89.9933 53.4375 89.9688C53.4464 89.9599 53.4604 89.9469 53.4688 89.9375C53.4897 89.9134 53.5135 89.9011 53.5312 89.875C53.5386 89.864 53.5245 89.8547 53.5312 89.8438C53.5537 89.8066 53.5781 89.7601 53.5938 89.7188C53.8646 88.9484 54.6033 88.4063 55.4688 88.4062L58.9688 88.4062C59.7255 88.4062 60.382 88.8157 60.7188 89.4375C60.7669 89.5259 60.8098 89.6225 60.8438 89.7188C60.8594 89.7606 60.8838 89.8061 60.9062 89.8438C60.9115 89.8521 60.9005 89.8667 60.9062 89.875C60.9246 89.9038 60.9463 89.9119 60.9688 89.9375C60.9766 89.9469 60.9916 89.9599 61 89.9688C61.0235 89.9939 61.0358 90.0098 61.0625 90.0312C61.0693 90.0365 61.0864 90.0573 61.0938 90.0625C61.1288 90.0892 61.1795 90.1046 61.2188 90.125L62.0625 90.125L62.0625 75.5C62.1375 74.15 61.5875 72.8562 60.6875 72.0312C59.7875 71.1313 58.6 70.625 57.25 70.625ZM57.25 71.6562C59.35 71.6562 61 73.3062 61 75.4062C61 77.5062 59.35 79.1563 57.25 79.1562C55.15 79.1562 53.5 77.5063 53.5 75.4062C53.5 73.3063 55.15 71.6562 57.25 71.6562Z" fill="#ffbf00" fill-rule="nonzero" opacity="1" stroke="none"/>
<path d="M81.0938 70.625C78.3938 70.625 76.2188 72.8 76.2188 75.5L76.2188 90.125L77.0625 90.125L77.0938 90.125C77.1309 90.1057 77.154 90.0876 77.1875 90.0625C77.1953 90.0567 77.2109 90.0375 77.2188 90.0312C77.2449 90.0103 77.2582 89.9933 77.2812 89.9688C77.2901 89.9599 77.3041 89.9469 77.3125 89.9375C77.3334 89.9134 77.3572 89.9011 77.375 89.875C77.3823 89.864 77.3682 89.8547 77.375 89.8438C77.3975 89.8066 77.4218 89.7601 77.4375 89.7188C77.7084 88.9484 78.447 88.4063 79.3125 88.4062L82.8125 88.4062C83.5692 88.4062 84.2257 88.8157 84.5625 89.4375C84.6106 89.5259 84.6535 89.6225 84.6875 89.7188C84.7032 89.7606 84.7275 89.8061 84.75 89.8438C84.7552 89.8521 84.7755 89.8667 84.7812 89.875C84.7996 89.9038 84.79 89.9119 84.8125 89.9375C84.8203 89.9469 84.8354 89.9599 84.8438 89.9688C84.8673 89.9939 84.9108 90.0098 84.9375 90.0312C84.9443 90.0365 84.9302 90.0573 84.9375 90.0625C84.9725 90.0892 85.0233 90.1046 85.0625 90.125L85.9062 90.125L85.9062 75.5C85.9812 74.15 85.4625 72.8562 84.5625 72.0312C83.6625 71.1313 82.4438 70.625 81.0938 70.625ZM81.0938 71.6562C83.1937 71.6562 84.8438 73.3062 84.8438 75.4062C84.8438 77.5062 83.1938 79.1563 81.0938 79.1562C78.9938 79.1562 77.3438 77.5063 77.3438 75.4062C77.3438 73.3063 78.9937 71.6562 81.0938 71.6562Z" fill="#ffbf00" fill-rule="nonzero" opacity="1" stroke="none"/>
<path d="M102.25 70.625C99.55 70.625 97.375 72.8 97.375 75.5L97.375 90.125L98.2812 90.125C98.3184 90.1057 98.3728 90.0876 98.4062 90.0625C98.4141 90.0567 98.3984 90.0375 98.4062 90.0312C98.4324 90.0103 98.477 89.9933 98.5 89.9688C98.5089 89.9599 98.5229 89.9469 98.5312 89.9375C98.5522 89.9134 98.5447 89.9011 98.5625 89.875C98.5698 89.864 98.5869 89.8547 98.5938 89.8438C98.6162 89.8066 98.6405 89.7601 98.6562 89.7188C98.9271 88.9484 99.6657 88.4063 100.531 88.4062L104 88.4062C104.757 88.4062 105.444 88.8157 105.781 89.4375C105.829 89.5259 105.872 89.6225 105.906 89.7188C105.922 89.7606 105.946 89.8061 105.969 89.8438C105.974 89.8521 105.963 89.8667 105.969 89.875C105.987 89.9038 106.009 89.9119 106.031 89.9375C106.039 89.9469 106.054 89.9599 106.062 89.9688C106.074 89.9813 106.081 89.9883 106.094 90L107.125 89.8125L107.125 75.5C107.125 74.15 106.587 72.8562 105.688 72.0312C104.788 71.1313 103.6 70.625 102.25 70.625ZM102.25 71.6562C104.35 71.6562 106 73.3062 106 75.4062C106 77.5062 104.35 79.1563 102.25 79.1562C100.15 79.1562 98.5 77.5063 98.5 75.4062C98.5 73.3063 100.15 71.6562 102.25 71.6562Z" fill="#ffbf00" fill-rule="nonzero" opacity="1" stroke="none"/>
</g>
<path d="M12.2571 82.4737C12.5964 82.4737 12.8418 82.6135 12.9931 82.8931C13.1103 83.1091 13.1689 83.4051 13.1689 83.7811C13.1689 84.1376 13.1158 84.4324 13.0096 84.6655C12.8558 85 12.6044 85.1672 12.2552 85.1672C11.9403 85.1672 11.7059 85.0305 11.5521 84.7571C11.4239 84.5288 11.3598 84.2224 11.3598 83.8379C11.3598 83.54 11.3983 83.2843 11.4752 83.0707C11.6192 82.6727 11.8799 82.4737 12.2571 82.4737ZM12.2534 84.8669C12.4243 84.8669 12.5604 84.7913 12.6617 84.6399C12.763 84.4885 12.8137 84.2065 12.8137 83.7939C12.8137 83.4961 12.7771 83.251 12.7038 83.0588C12.6306 82.8665 12.4884 82.7704 12.2772 82.7704C12.0831 82.7704 11.9412 82.8616 11.8515 83.0441C11.7618 83.2266 11.7169 83.4955 11.7169 83.8507C11.7169 84.118 11.7456 84.3329 11.803 84.4952C11.8908 84.743 12.041 84.8669 12.2534 84.8669Z" fill="#414757" fill-rule="evenodd" opacity="1" stroke="none"/>
<path d="M15.1307 61.4306L14.7224 60.2422L14.2884 61.4306L15.1307 61.4306ZM14.532 59.8431L14.9439 59.8431L15.9199 62.5329L15.5207 62.5329L15.2479 61.7272L14.1841 61.7272L13.8929 62.5329L13.5194 62.5329L14.532 59.8431Z" fill="#414757" fill-rule="evenodd" opacity="1" stroke="none"/>
<path d="M99.5026 26.3395C99.6564 26.3395 99.776 26.3181 99.8615 26.2754C99.9958 26.2082 100.063 26.0874 100.063 25.9128C100.063 25.737 99.9915 25.6186 99.8487 25.5576C99.7681 25.5234 99.6485 25.5063 99.4898 25.5063L98.8398 25.5063L98.8398 26.3395L99.5026 26.3395ZM99.6253 27.5809C99.8487 27.5809 100.008 27.5162 100.103 27.3868C100.163 27.305 100.193 27.2062 100.193 27.0902C100.193 26.8949 100.106 26.7618 99.9311 26.691C99.8383 26.6532 99.7156 26.6343 99.563 26.6343L98.8398 26.6343L98.8398 27.5809L99.6253 27.5809ZM98.4827 25.2024L99.6381 25.2024C99.953 25.2024 100.177 25.2964 100.31 25.4844C100.388 25.5954 100.427 25.7236 100.427 25.8689C100.427 26.0386 100.379 26.1777 100.283 26.2864C100.233 26.3437 100.161 26.3962 100.067 26.4438C100.204 26.4963 100.308 26.5555 100.376 26.6214C100.497 26.7386 100.557 26.9004 100.557 27.1067C100.557 27.28 100.503 27.4369 100.394 27.5772C100.232 27.7872 99.9738 27.8922 99.6198 27.8922L98.4827 27.8922L98.4827 25.2024Z" fill="#414757" fill-rule="evenodd" opacity="1" stroke="none"/>
<path d="M32.6002 83.2391L32.6002 82.9864C32.8382 82.9633 33.0042 82.9245 33.0982 82.8702C33.1922 82.8159 33.2624 82.6874 33.3088 82.4847L33.5688 82.4847L33.5688 85.0958L33.2173 85.0958L33.2173 83.2391L32.6002 83.2391Z" fill="#414757" fill-rule="evenodd" opacity="1" stroke="none"/>
<path d="M56.3585 85.0958C56.3707 84.87 56.4174 84.6735 56.4986 84.5062C56.5797 84.339 56.7381 84.187 56.9737 84.0503L57.3253 83.847C57.4828 83.7555 57.5932 83.6774 57.6567 83.6127C57.7568 83.5113 57.8069 83.3954 57.8069 83.2648C57.8069 83.1122 57.7611 82.991 57.6695 82.9013C57.578 82.8116 57.4559 82.7667 57.3033 82.7667C57.0775 82.7667 56.9212 82.8522 56.8346 83.0231C56.7882 83.1146 56.7625 83.2416 56.7577 83.4039L56.4226 83.4039C56.4262 83.1756 56.4684 82.9895 56.5489 82.8455C56.6917 82.5915 56.9438 82.4646 57.3051 82.4646C57.6054 82.4646 57.8249 82.5458 57.9634 82.7081C58.102 82.8705 58.1712 83.0511 58.1712 83.2501C58.1712 83.4601 58.0974 83.6395 57.9497 83.7884C57.8642 83.8751 57.711 83.9801 57.4901 84.1034L57.2392 84.2425C57.1196 84.3085 57.0256 84.3713 56.9572 84.4311C56.8352 84.5373 56.7583 84.6551 56.7265 84.7845L58.1584 84.7845L58.1584 85.0958L56.3585 85.0958Z" fill="#414757" fill-rule="evenodd" opacity="1" stroke="none"/>
<path d="M80.7525 83.7052C80.7513 83.7049 80.7501 83.7045 80.7489 83.7042L80.7525 83.7052ZM80.7525 83.7052C80.8887 83.7433 80.9952 83.8159 81.072 83.923C81.1496 84.0311 81.1883 84.1632 81.1883 84.3195C81.1883 84.5697 81.1059 84.7735 80.9411 84.931C80.7763 85.0885 80.5426 85.1672 80.2398 85.1672C79.9298 85.1672 79.7049 85.0821 79.5651 84.9118C79.4253 84.7415 79.3554 84.5343 79.3554 84.2902L79.6997 84.2902C79.7143 84.4598 79.7461 84.5831 79.7949 84.66C79.8803 84.798 80.0347 84.8669 80.2581 84.8669C80.4315 84.8669 80.5706 84.8206 80.6756 84.7278C80.7806 84.635 80.8331 84.5154 80.8331 84.3689C80.8331 84.1882 80.7779 84.0619 80.6674 83.9899C80.5569 83.9178 80.4034 83.8818 80.2069 83.8818C80.1849 83.8818 80.1626 83.8821 80.14 83.8827C80.1175 83.8834 80.0946 83.8843 80.0714 83.8855L80.0714 83.5944C80.1056 83.598 80.1342 83.6005 80.1574 83.6017C80.1806 83.6029 80.2056 83.6035 80.2325 83.6035C80.3558 83.6035 80.4571 83.584 80.5365 83.5449C80.6756 83.4766 80.7452 83.3545 80.7452 83.1787C80.7452 83.0481 80.6988 82.9474 80.606 82.8766C80.5133 82.8058 80.4052 82.7704 80.2819 82.7704C80.0622 82.7704 79.9102 82.8436 79.826 82.9901C79.7796 83.0707 79.7534 83.1854 79.7473 83.3343L79.4213 83.3343C79.4213 83.139 79.4604 82.973 79.5385 82.8363C79.6728 82.5921 79.909 82.4701 80.2472 82.4701C80.5145 82.4701 80.7214 82.5296 80.8679 82.6486C81.0144 82.7676 81.0876 82.94 81.0876 83.1659C81.0876 83.327 81.0443 83.4576 80.9576 83.5577C80.9039 83.62 80.8343 83.6688 80.7489 83.7042L80.7525 83.7052ZM81.7541 83.1348L82.2778 84.7314L82.8253 83.1348L83.186 83.1348L82.4463 85.0958L82.0947 85.0958L81.3714 83.1348L81.7541 83.1348Z" fill="#414757" fill-rule="evenodd" opacity="1" stroke="none"/>
<path d="M99.53 82.3364C99.7827 82.3364 100.001 82.3852 100.186 82.4829C100.453 82.6233 100.616 82.8692 100.676 83.2208L100.316 83.2208C100.272 83.0243 100.181 82.8812 100.043 82.7914C99.9047 82.7017 99.7308 82.6569 99.5208 82.6569C99.2718 82.6569 99.0622 82.7502 98.8919 82.937C98.7216 83.1238 98.6364 83.4021 98.6364 83.772C98.6364 84.0918 98.7066 84.3521 98.847 84.5529C98.9874 84.7537 99.2163 84.8541 99.5337 84.8541C99.7766 84.8541 99.9777 84.7836 100.137 84.6426C100.296 84.5016 100.378 84.2737 100.381 83.9587L99.5392 83.9587L99.5392 83.6566L100.72 83.6566L100.72 85.0958L100.486 85.0958L100.398 84.7497C100.275 84.8852 100.165 84.9792 100.07 85.0317C99.9102 85.1221 99.707 85.1672 99.4604 85.1672C99.1418 85.1672 98.8678 85.0641 98.6383 84.8578C98.388 84.599 98.2629 84.2438 98.2629 83.7921C98.2629 83.3417 98.385 82.9834 98.6291 82.7173C98.8611 82.4634 99.1613 82.3364 99.53 82.3364ZM101.284 82.406L101.714 82.406L103.073 84.585L103.073 82.406L103.419 82.406L103.419 85.0958L103.011 85.0958L101.632 82.9187L101.632 85.0958L101.284 85.0958L101.284 82.406ZM105.025 84.7845C105.148 84.7845 105.25 84.7717 105.329 84.7461C105.471 84.6985 105.587 84.6069 105.677 84.4714C105.749 84.3628 105.801 84.2236 105.832 84.0539C105.851 83.9526 105.86 83.8586 105.86 83.772C105.86 83.4387 105.794 83.1799 105.661 82.9956C105.529 82.8113 105.316 82.7191 105.021 82.7191L104.375 82.7191L104.375 84.7845L105.025 84.7845ZM104.009 82.406L105.098 82.406C105.468 82.406 105.755 82.5372 105.959 82.7997C106.141 83.0365 106.232 83.3398 106.232 83.7097C106.232 83.9954 106.178 84.2535 106.071 84.4842C105.881 84.892 105.556 85.0958 105.095 85.0958L104.009 85.0958L104.009 82.406Z" fill="#414757" fill-rule="evenodd" opacity="1" stroke="none"/>
<g opacity="1">
<g opacity="0.5">
<path d="M49.2257 32.3617L48.0257 32.3617C47.9507 32.3617 47.8757 32.2867 47.8757 32.2117L47.8757 30.2617C47.8757 30.1867 47.9507 30.1117 48.0257 30.1117L49.2257 30.1117C49.3007 30.1117 49.3757 30.1867 49.3757 30.2617L49.3757 32.2117C49.3757 32.2867 49.3757 32.3617 49.2257 32.3617Z" fill="#ff4e00" fill-rule="nonzero" opacity="1" stroke="#ff4e00" stroke-linecap="butt" stroke-linejoin="miter" stroke-width="5"/>
<path d="M66.4757 32.3617L65.2757 32.3617C65.2007 32.3617 65.1257 32.2867 65.1257 32.2117L65.1257 30.2617C65.1257 30.1867 65.2007 30.1117 65.2757 30.1117L66.4757 30.1117C66.5507 30.1117 66.6257 30.1867 66.6257 30.2617L66.6257 32.2117C66.6257 32.2867 66.6257 32.3617 66.4757 32.3617Z" fill="#ff4e00" fill-rule="nonzero" opacity="1" stroke="#ff4e00" stroke-linecap="butt" stroke-linejoin="miter" stroke-width="5"/>
<path d="M40.6007 57.6367L39.4007 57.6367C39.3257 57.6367 39.2507 57.5617 39.2507 57.4867L39.2507 55.5367C39.2507 55.4617 39.3257 55.3867 39.4007 55.3867L40.6007 55.3867C40.6757 55.3867 40.7507 55.4617 40.7507 55.5367L40.7507 57.4867C40.7507 57.5617 40.7507 57.6367 40.6007 57.6367Z" fill="#ff4e00" fill-rule="nonzero" opacity="1" stroke="#ff4e00" stroke-linecap="butt" stroke-linejoin="miter" stroke-width="5"/>
<path d="M75.1007 57.6367L73.9007 57.6367C73.8257 57.6367 73.7507 57.5617 73.7507 57.4867L73.7507 55.5367C73.7507 55.4617 73.8257 55.3867 73.9007 55.3867L75.1007 55.3867C75.1757 55.3867 75.2507 55.4617 75.2507 55.5367L75.2507 57.4867C75.2507 57.5617 75.2507 57.6367 75.1007 57.6367Z" fill="#ff4e00" fill-rule="nonzero" opacity="1" stroke="#ff4e00" stroke-linecap="butt" stroke-linejoin="miter" stroke-width="5"/>
<path d="M49.2257 66.1067L48.0257 66.1067C47.9507 66.1067 47.8757 66.0317 47.8757 65.9567L47.8757 64.0067C47.8757 63.9317 47.9507 63.8567 48.0257 63.8567L49.2257 63.8567C49.3007 63.8567 49.3757 63.9317 49.3757 64.0067L49.3757 65.9567C49.3757 66.0317 49.3757 66.1067 49.2257 66.1067Z" fill="#ff4e00" fill-rule="nonzero" opacity="1" stroke="#ff4e00" stroke-linecap="butt" stroke-linejoin="miter" stroke-width="5"/>
<path d="M57.8507 66.1117L56.6507 66.1117C56.5757 66.1117 56.5007 66.0367 56.5007 65.9617L56.5007 64.0117C56.5007 63.9367 56.5757 63.8617 56.6507 63.8617L57.8507 63.8617C57.9257 63.8617 58.0007 63.9367 58.0007 64.0117L58.0007 65.9617C58.0007 66.0367 58.0007 66.1117 57.8507 66.1117Z" fill="#ff4e00" fill-rule="nonzero" opacity="1" stroke="#ff4e00" stroke-linecap="butt" stroke-linejoin="miter" stroke-width="5"/>
<path d="M66.4757 66.1067L65.2757 66.1067C65.2007 66.1067 65.1257 66.0317 65.1257 65.9567L65.1257 64.0067C65.1257 63.9317 65.2007 63.8567 65.2757 63.8567L66.4757 63.8567C66.5507 63.8567 66.6257 63.9317 66.6257 64.0067L66.6257 65.9567C66.6257 66.0317 66.6257 66.1067 66.4757 66.1067Z" fill="#ff4e00" fill-rule="nonzero" opacity="1" stroke="#ff4e00" stroke-linecap="butt" stroke-linejoin="miter" stroke-width="5"/>
<path d="M49.2257 40.7617L48.0257 40.7617C47.9507 40.7617 47.8757 40.6867 47.8757 40.6117L47.8757 38.6617C47.8757 38.5867 47.9507 38.5117 48.0257 38.5117L49.2257 38.5117C49.3007 38.5117 49.3757 38.5867 49.3757 38.6617L49.3757 40.6117C49.3757 40.6867 49.3757 40.7617 49.2257 40.7617Z" fill="#ff4e00" fill-rule="nonzero" opacity="1" stroke="#ff4e00" stroke-linecap="butt" stroke-linejoin="miter" stroke-width="5"/>
<path d="M66.4757 40.7617L65.2757 40.7617C65.2007 40.7617 65.1257 40.6867 65.1257 40.6117L65.1257 38.6617C65.1257 38.5867 65.2007 38.5117 65.2757 38.5117L66.4757 38.5117C66.5507 38.5117 66.6257 38.5867 66.6257 38.6617L66.6257 40.6117C66.6257 40.6867 66.6257 40.7617 66.4757 40.7617Z" fill="#ff4e00" fill-rule="nonzero" opacity="1" stroke="#ff4e00" stroke-linecap="butt" stroke-linejoin="miter" stroke-width="5"/>
</g>
<g opacity="1">
<path d="M49.2257 32.3617L48.0257 32.3617C47.9507 32.3617 47.8757 32.2867 47.8757 32.2117L47.8757 30.2617C47.8757 30.1867 47.9507 30.1117 48.0257 30.1117L49.2257 30.1117C49.3007 30.1117 49.3757 30.1867 49.3757 30.2617L49.3757 32.2117C49.3757 32.2867 49.3757 32.3617 49.2257 32.3617Z" fill="#ff4e00" fill-rule="nonzero" opacity="1" stroke="#ff4e00" stroke-linecap="butt" stroke-linejoin="miter" stroke-width="1.5"/>
<path d="M66.4757 32.3617L65.2757 32.3617C65.2007 32.3617 65.1257 32.2867 65.1257 32.2117L65.1257 30.2617C65.1257 30.1867 65.2007 30.1117 65.2757 30.1117L66.4757 30.1117C66.5507 30.1117 66.6257 30.1867 66.6257 30.2617L66.6257 32.2117C66.6257 32.2867 66.6257 32.3617 66.4757 32.3617Z" fill="#ff4e00" fill-rule="nonzero" opacity="1" stroke="#ff4e00" stroke-linecap="butt" stroke-linejoin="miter" stroke-width="1.5"/>
<path d="M40.6007 57.6367L39.4007 57.6367C39.3257 57.6367 39.2507 57.5617 39.2507 57.4867L39.2507 55.5367C39.2507 55.4617 39.3257 55.3867 39.4007 55.3867L40.6007 55.3867C40.6757 55.3867 40.7507 55.4617 40.7507 55.5367L40.7507 57.4867C40.7507 57.5617 40.7507 57.6367 40.6007 57.6367Z" fill="#ff4e00" fill-rule="nonzero" opacity="1" stroke="#ff4e00" stroke-linecap="butt" stroke-linejoin="miter" stroke-width="1.5"/>
<path d="M75.1007 57.6367L73.9007 57.6367C73.8257 57.6367 73.7507 57.5617 73.7507 57.4867L73.7507 55.5367C73.7507 55.4617 73.8257 55.3867 73.9007 55.3867L75.1007 55.3867C75.1757 55.3867 75.2507 55.4617 75.2507 55.5367L75.2507 57.4867C75.2507 57.5617 75.2507 57.6367 75.1007 57.6367Z" fill="#ff4e00" fill-rule="nonzero" opacity="1" stroke="#ff4e00" stroke-linecap="butt" stroke-linejoin="miter" stroke-width="1.5"/>
<path d="M49.2257 66.1067L48.0257 66.1067C47.9507 66.1067 47.8757 66.0317 47.8757 65.9567L47.8757 64.0067C47.8757 63.9317 47.9507 63.8567 48.0257 63.8567L49.2257 63.8567C49.3007 63.8567 49.3757 63.9317 49.3757 64.0067L49.3757 65.9567C49.3757 66.0317 49.3757 66.1067 49.2257 66.1067Z" fill="#ff4e00" fill-rule="nonzero" opacity="1" stroke="#ff4e00" stroke-linecap="butt" stroke-linejoin="miter" stroke-width="1.5"/>
<path d="M57.8507 66.1117L56.6507 66.1117C56.5757 66.1117 56.5007 66.0367 56.5007 65.9617L56.5007 64.0117C56.5007 63.9367 56.5757 63.8617 56.6507 63.8617L57.8507 63.8617C57.9257 63.8617 58.0007 63.9367 58.0007 64.0117L58.0007 65.9617C58.0007 66.0367 58.0007 66.1117 57.8507 66.1117Z" fill="#ff4e00" fill-rule="nonzero" opacity="1" stroke="#ff4e00" stroke-linecap="butt" stroke-linejoin="miter" stroke-width="1.5"/>
<path d="M66.4757 66.1067L65.2757 66.1067C65.2007 66.1067 65.1257 66.0317 65.1257 65.9567L65.1257 64.0067C65.1257 63.9317 65.2007 63.8567 65.2757 63.8567L66.4757 63.8567C66.5507 63.8567 66.6257 63.9317 66.6257 64.0067L66.6257 65.9567C66.6257 66.0317 66.6257 66.1067 66.4757 66.1067Z" fill="#ff4e00" fill-rule="nonzero" opacity="1" stroke="#ff4e00" stroke-linecap="butt" stroke-linejoin="miter" stroke-width="1.5"/>
<path d="M49.2257 40.7617L48.0257 40.7617C47.9507 40.7617 47.8757 40.6867 47.8757 40.6117L47.8757 38.6617C47.8757 38.5867 47.9507 38.5117 48.0257 38.5117L49.2257 38.5117C49.3007 38.5117 49.3757 38.5867 49.3757 38.6617L49.3757 40.6117C49.3757 40.6867 49.3757 40.7617 49.2257 40.7617Z" fill="#ff4e00" fill-rule="nonzero" opacity="1" stroke="#ff4e00" stroke-linecap="butt" stroke-linejoin="miter" stroke-width="1.5"/>
<path d="M66.4757 40.7617L65.2757 40.7617C65.2007 40.7617 65.1257 40.6867 65.1257 40.6117L65.1257 38.6617C65.1257 38.5867 65.2007 38.5117 65.2757 38.5117L66.4757 38.5117C66.5507 38.5117 66.6257 38.5867 66.6257 38.6617L66.6257 40.6117C66.6257 40.6867 66.6257 40.7617 66.4757 40.7617Z" fill="#ff4e00" fill-rule="nonzero" opacity="1" stroke="#ff4e00" stroke-linecap="butt" stroke-linejoin="miter" stroke-width="1.5"/>
</g>
</g>
<path d="M77.3222 19.5816C76.9967 19.5816 76.733 19.8461 76.733 20.1715L76.733 21.2886C76.733 21.6144 76.9967 21.8782 77.3222 21.8782C77.6477 21.8782 77.9119 21.6144 77.9119 21.2886L77.9119 20.1715C77.9119 19.8461 77.6477 19.5816 77.3222 19.5816ZM76.0281 21.4848C76.0281 22.0907 76.475 22.5615 77.0359 22.6876L77.0359 22.9921L76.3892 22.9921L76.3892 23.4655L78.2787 23.4655L78.2787 22.9921L77.6304 22.9921L77.6304 22.6876C78.1919 22.5617 78.6403 22.0908 78.6403 21.4848L78.2133 21.4848C78.2133 21.9495 77.813 22.2963 77.3337 22.2963C76.8538 22.2963 76.4546 21.9494 76.4546 21.4848L76.0281 21.4848Z" fill="#606981" fill-rule="evenodd" opacity="1" stroke="none"/>
<path d="M73.7396 22.0339C73.2534 22.0339 72.897 22.4228 72.897 22.8765C72.897 23.3302 73.2859 23.719 73.7396 23.719C74.2255 23.719 74.5821 23.3302 74.5821 22.8765C74.5821 22.4228 74.1932 22.0339 73.7396 22.0339ZM73.7396 22.1316C74.1482 22.1316 74.4844 22.4679 74.4844 22.8765C74.4844 23.2851 74.1482 23.6213 73.7396 23.6213C73.331 23.6213 72.9947 23.2851 72.9947 22.8765C72.9947 22.4679 73.331 22.1316 73.7396 22.1316Z" fill="#ffbf00" fill-rule="nonzero" opacity="1" stroke="none"/>
</g>
</g>
</svg>
